<?xml version="1.0" encoding="utf-8"?>
<!-- Generator: Adobe Illustrator 28.0.0, SVG Export Plug-In . SVG Version: 6.00 Build 0)  -->
<svg version="1.1" id="Ebene_1" xmlns="http://www.w3.org/2000/svg" xmlns:xlink="http://www.w3.org/1999/xlink" x="0px" y="0px"
	 viewBox="0 0 4000 3500" style="enable-background:new 0 0 4000 3500;" xml:space="preserve">
<g>
	<path d="M2533,1776c4.9,4,4.1,10.6,7.6,15c1.4,1.8,0.7,4.4-0.7,6.3c-4.2,5.9-3.3,11.6,0.7,17.1c3.4,4.7,3.5,9.1-0.3,13.6
		c-2.6,3-2.1,6.1,0.2,9.1c1.7,2.2,3.5,4.4,5,6.8c2.3,3.5,3.1,7.4,1.3,11.2c-3.6,7.7-5.8,15.6-5.3,24.3c0.1,3.1-2.3,6.2-3.2,9.4
		c-1.4,5-1.3,9.9,1.2,14.7c3.9,7.3,8.7,8.2,15.6,2.6c5.5-4.5,6.1-5,10.9,0.2c4.1,4.4,8.1,5.5,13.4,3.5c5.3-2,10.5-3.4,16.1-0.4
		c3.1,1.7,6.6,0.2,9.6-1.4c6.4-3.3,12.4-3.2,19.1,0.4c7.3,4,15.6,1.5,21.2-4.4c2-2.2,2.7-4.7,2.9-7.6c0.4-7.8,1-15.6,1.8-23.4
		c0.5-5.6,3.8-8,9.1-6.8c3.3,0.7,6.4,2.1,9.7,2.6c3.9,0.5,7.8,0.3,11.3-2.1c2.5-1.8,3.9-3.9,2.8-7.1c-0.5-1.6-1-3.4-2-4.6
		c-7.3-8.1-10.1-18.7-15.7-27.6c-3.5-5.5-5.3-11.1-3.9-17.5c1.5-7,0.2-13.4-4-19.1c-4.4-6-4.4-12.4-2.7-19.2
		c2.3-9,1.6-17.8-1.8-26.4c-0.9-2.2-2.2-3.9-4.8-3.8c-3.3,0.1-5.9,2.5-5.5,5.2c2.4,16.1-3.8,32.1,0.1,48.2c0.9,3.8,0.9,8,3.7,11
		c6.3,6.5,5.5,14.5,4.6,22.2c-1,8.3-3.3,16.4-2.8,24.9c0.3,4.5-3.5,6.8-8,6c-6.2-1.2-11.9-3.5-16.6-7.7
		c-13.4-11.9-27.1-23.6-37-38.8c-3.1-4.7-6.8-8.8-10.6-12.9c-10.7-11.6-18-25.6-26.3-38.8c-1.4-2.2-1.7-5.3-2-8.1
		c-0.7-6.8-2.6-13.1-7-18.6c-3.6-4.5-4.2-9.3-0.3-13.8c6.4-7.3,5.8-15.3,3-23.7c-1.1-3.2-1.6-6.6-3.1-9.6c-2.7-5-2.8-9.4,0.9-14
		c5.3-6.5,5-13.6,0.7-20.3c-3.3-5-4.7-10.3-4.2-15.9c1.4-14.1-7.3-22.3-17.9-27.8c-9.3-4.8-19.4-8.6-29.9-10.8
		c-4.3-0.9-8-0.6-11,2.1c-6,5.4-12.7,9.1-20.9,9.8c-3,0.2-5.2,2-7,4.2c-6,7.4-11.9,14.8-17.9,22.2c-1.9,2.3-2.8,4.7-3.4,7.5
		c-0.4,2.1-1.2,5-2.7,5.8c-7.8,4.4-8,11.4-7.3,19c0.4,4.5,0.3,9.3-2.7,12.9c-7.8,9.7-7.4,20.8-5.9,32.1c0.2,1.7,0.6,3.3,0.8,5
		c0.5,3.2-1,5.2-3.9,6.6c-2.5,1.2-5.1,2.4-7.4,4c-4.4,3-7.1,7.1-7.6,12.5c-0.1,1.1-0.2,2.2-0.2,3.4c-0.1,14.6-1.9,28.6-10,41.7
		c-7.6,12.3-9,27.7-18.1,39.4c-2.9,16.3-13.5,29.4-18.9,44.4c-4.7,13.2-13.8,21.3-22.9,30.1c-1.9,1.9-4.2,0.5-5.6-1.5
		c-2.4-3.4-2.5-7.4-2.4-11.3c0-7.3,0.1-14.6,0.6-21.9c0.9-12.9,0.8-25.8-1.7-38.5c-0.2-1.1-0.5-2.3-0.3-3.3
		c3.1-20.6,0.1-41.4,2.1-62c0.3-3.3,1.3-6.6,2.3-9.7c1.2-3.8,2.5-7.7,1.2-11.5c-5.1-15.9-3.6-32.3-3.4-48.4
		c0.2-13.1-1.5-25.7-4.7-38.2c-1.6-6.3-2-11.9,0.8-17.9c3.3-7.3,3.6-14.8,2.6-23c-2.2-18.4,0.2-36.7,2.7-55c0.4-2.8,0.7-5.6,1.3-8.3
		c1-4.3-2.1-10,1.4-12.9c5-4.1,10.5,1,15.7,1.7c3.8,0.5,7.6,2.2,10.9,4.1c15.1,8.5,30.3,16.9,43.9,28c12.3,10,27.7,7,36-6.1
		c1.5-2.3,0.5-5.9-1.9-7.2c-0.5-0.3-1-0.7-1.5-0.7c-11.7-0.4-12.8-9-13.1-17.7c-0.2-4.4,0.8-8.9,0.9-13.4c0.1-3.8-2-6.6-5.9-6.9
		c-10.6-0.8-21.3-1.7-31.9-1.8c-15.1-0.1-30.3,0.4-45.4,0.9c-9.1,0.3-9.4,0.4-12.1,10.1c-1.1,4.1-3.2,5.6-7,5.3
		c-4.5-0.4-8.9-1.1-13.3-1.6c-2.4-0.3-4.7-1.4-5.1-3.6c-1.3-6.8-6.2-7.1-11.5-7c-2.8,0-5.6,0-8.4,0c-3.9-0.1-7.4-0.1-10.3-4.1
		c-3.2-4.5-8.3-4.8-13.7-3.9c-15.5,2.5-30.9,5.5-46.7,5.4c-4.7,0-6.7,3.9-4.4,8.1c1.6,2.9,4.2,5.5,5.3,8.5
		c3.6,9.8,1.3,17.3-5.8,22.4c-8.2,5.9-10.5,6.9-19-0.8c-6.2-5.6-10.7-12.9-12-21.6c-0.4-2.8-0.4-5.6-1-8.3
		c-1.4-6.1-4.7-8.5-10.9-7.9c-5.6,0.6-11.1,1.1-16.6,2.1c-7.5,1.3-14.4-0.5-21.5-2.4c-3.5-0.9-6.3-2.4-8.2-5.4
		c-5.6-8.7-12.8-14-23.8-11.7c-1,0.2-2.4,0.1-3.3-0.4c-7-3.7-12.8-0.7-19,2.4c-10.4,5.3-11.4,6.9-8.3,18c2,7,4.1,14,5.9,21
		c1.6,6.2,4.9,11,9.7,15.4c6.1,5.6,12.3,6.8,20,3.5c12.8-5.6,25.4-11.7,39.3-14.4c21.8-4.3,26.8-2.6,39.3,15.7
		c2.8,4.1,4.8,8.8,7.3,13.2c2.2,3.9,5.7,5.2,10,4.4c5.6-1,10.4-3.7,15.1-7c20.7-14.4,42.4-27.3,66.2-36c5.2-1.9,10.7-3.5,16.1-4.5
		c5.2-1,8.8,2.2,9,7.3c0.1,1.7,0.1,3.4-0.1,5c-3,20.8-1.2,41.3,3.9,61.5c1.4,5.4,3,10.9,0.6,16.5c-2.6,6-2.1,12.2-0.5,18.2
		c1.9,6.8,1.9,13.3-2.1,19.4c-3,4.6-3.3,9.4-2.1,14.5c0.9,3.9,1.7,7.9,0.4,11.6c-3.4,9.4-2.3,18.8-1.1,28.2c0.2,1.7,0.6,3.4,0.4,5
		c-1.9,22.9-0.1,45.8-0.3,68.7c0,2.2-0.2,4.7-1.3,6.5c-4.6,7.5-3,15-0.8,22.7c2.8,9.8,3.2,19.6,2,29.9c-1.4,12-1.8,24.5,3.2,36.2
		c1.7,4.1,1.3,7.7-1.8,10.8c-3.5,3.5-5.2,8.3-3.1,12.3c4,7.5,3.5,14.8,1.8,22.6c-0.3,1.3,0.6,3.5,1.7,4.5c1.8,1.7,4.2,1.1,6-0.3
		c7.1-5.5,14.3-10.8,20-17.9c4.7-5.8,10.7-9.9,18-11.7c2.7-0.6,5.7-1.7,8.2-1.1c9.9,2.7,19.9,2.4,30,1.9c2.7-0.1,5.7,0.3,8.2,1.2
		c3.9,1.4,7.3,1.7,11.2-0.2c6.1-3,11.8-2.2,17.2,2.2c3.6,3,7.9,4.2,12.6,2.6c3.4-1.2,5.8-3.5,5.9-7.3c0-2.9-1.3-5.4-4.1-6.8
		c-3-1.4-6.4-2.3-9-4.2c-5.6-4-4.2-12.1,2.3-14.7c0.5-0.2,1.1-0.4,1.6-0.4c3.9-0.6,7.9-0.9,10.3-4.7c2.8-4.2-0.2-7.5-1.9-10.8
		c-1.7-3.3-1.3-6.5-0.3-9.8c2-6.7,0.3-12-5.4-16.2c-4.1-3-3.1-6.6-0.4-10.2c5.9-7.9,6.4-17.8,9.3-26.7c1.3-3.9-0.5-7.7-4.4-10
		c-4.9-3-8.7-7.1-11.4-12c-1.5-2.7-1.2-5.5,1.2-7.6c2.4-2.2,5.2-1.8,7.8-0.3c3.5,2,5.3,5.6,7.4,8.9c3.3,5.2,6.9,10.2,10.5,15.2
		c1.3,1.8,2.8,4.1,4.7,4.6c15,4.2,14.1,16.8,11.9,27.1c-2.1,10.2-2.5,19.4-0.6,29.6c2.2,11.5,2,23.4,2.6,35.2c0.1,2.7,0.3,6-1,8.2
		c-8.1,13.8-14.6,29.4-32.6,33.8c-6.7,1.7-11.7,6.5-17.2,10.3c-5,3.4-9.8,5.4-15.1,0.4c-3.1-2.9-7.1-4.1-10.9-2.5
		c-7.3,3.1-14.3,1.2-21.5,0c-7.2-1.2-14.5-1.5-21.8-0.6c-11.7,1.5-19.7,7.4-23.3,18.8c-1,3.2-2.1,6.4-2.6,9.7
		c-1.9,11.4-7.4,21.1-14.3,30c-4.8,6.3-8.8,12.9-12.7,19.7c-4.9,8.6-10.8,16.8-16.6,24.9c-2.3,3.3-6.3,4.5-9.9,6.2
		c-8.1,3.7-16.8,6.4-23.5,12.7c-2.1,2-4.7,2.9-7.5,3.3c-9.5,1.3-18.4,4.6-27.1,8.7c-9.1,4.2-19,6.3-28.5,9.4
		c-9.7,3.2-21.1,2.8-31.4,1.5c-12.6-1.5-24.6-1.5-36.1,4.3c-9.1,4.5-18.3,4.5-27.8,1.6c-12.8-4-26.3-5.3-38.5-11.7
		c-4.7-2.5-10.9-1.8-16.4-2.8c-4.9-0.9-10.4-0.3-14.4-4c-9.4-8.8-21.4-13.7-31.5-21.3c-9.8-7.4-19.1-15.4-28.8-22.9
		c-3.8-3-5.8-6.4-6.4-11.2c-0.4-3.8-1.5-7.7-2.9-11.3c-2-5-2.3-9.5,1.2-14.1c3.3-4.3,0.2-10.2,2.2-14.6c2.1-4.5,9.5-3.5,11.6-8.9
		c0.4-1,1.2-1.9,1.8-2.8c3.5-5.2,4.2-8.9,1.7-10.4c-3.6-2.2-6.3,0.5-9,2.2c-1.4,0.9-2.6,2.2-4.1,3c-5.4,2.8-3.4,11.5-9.1,12.9
		c-4.6,1.1-9.9-1.3-14.9-1.3c-4,0-7.1,2.8-10.5,4.8c-6.6,3.8-10.2,10.3-15.3,15.5c-3,3.1-3.8,6.9-1.5,10.8c4.3,7,3.7,13.3-0.9,20.2
		c-2.1,3-2.3,7.5-2.8,11.3c-0.7,5.6-2.2,9.7-9.2,9.3c-1.8-0.1-4.5,1.8-5.4,3.5c-5.3,9.9-16.2,13.7-23.4,21.5
		c-2.8,3.1-7.6,4.4-11.7,6.1c-4.1,1.7-8.5,2.8-12.7,4.4c-8.6,3.5-16.5,4.6-25.7,0c-7.3-3.7-16.1-4.4-23.1-9.4c-2.4-1.7-5.5-1.4-8,0
		c-2.5,1.3-4.6,3.3-7,4.6c-10.2,5.7-16.1,5-24.1-3.3c-3.9-4-6.6-8.9-8.9-14.1c-5.9-13.2-16.8-16.5-30-9.4c-1,0.5-1.7,1.6-2.7,1.8
		c-0.9,0.2-2.3,0-2.9-0.6c-0.6-0.6-1-2.2-0.6-2.9c1.9-4,4.9-7.4,6-11.9c3-12.3,3.2-12.2,14-4.5c1.8,1.3,3.8,2.4,5.8,3.4
		c3,1.5,5.9,0.5,7.4-1.9c2.7-4.2,5-8.8,6.7-13.4c1.5-4-1.8-10.5-6-12.7c-3.4-1.8-6.6-0.5-9.1,2c-3,3-6.2,4.5-10.6,3.6
		c-3.7-0.8-5.7-4.6-3.4-7.4c1-1.3,2.6-2.1,3.6-3.5c4.2-5.7,4.7-12.1,0.3-16.9c-4.9-5.3-9.6-11-16.2-14.5c-5.3-2.8-7.5-2.3-10.8,2.9
		c-0.6,0.9-0.9,2-1.4,3c-1.7,3-4.2,3.7-6.9,1.7c-3.6-2.7-6.9-5.7-10.4-8.5c-3.1-2.5-6.2-4.7-10.4-5c-8.5-0.7-14.8-5.1-18.6-12.6
		c-4.2-8.3-11-10.8-19.5-9.3c-11.2,1.9-22.2,1-33.5,0c-11.1-1-22.4-0.4-33.6-0.1c-7.7,0.3-14.5-1.7-20-7
		c-6.4-6.2-14.8-10.1-19.4-18.3c-1-1.8-3.1-3.1-5-4.3c-7.1-4.3-11-3.8-14.9,3.8c-3.4,6.6-7.9,8.8-14.7,8.4
		c-3.9-0.2-7.9,0.5-11.8,0.2c-9.7-0.6-17.7,1.9-22.9,10.8c-2.3,4-6,4.3-10.3,3.3c-8.7-1.9-17.6-3.5-26.3-5.1
		c-15-2.8-30.2-2.7-45.2-0.3c-7.7,1.3-14.4,0.3-20.4-4.9c-2.5-2.2-5.3-4.1-8.1-6c-7.8-5.1-10.8-12.1-10.5-21.4
		c0.3-8.4-1.1-16.7-1.1-25.1c-0.1-8.4-0.4-16.8,1.3-25.1c1.5-7.7,1.4-15.6-0.9-23.3c-1.7-5.6-1.4-11.1,0.8-16.5
		c0.9-2,1.8-4.4,3.4-5.6c8.3-6.5,16.8-12.8,25.4-19.1c2.5-1.8,5.8-0.7,6.8,2.2c5,14.5,4,29.1-2.9,42.3c-4.6,8.8-4.8,16.5-3,25.7
		c3.2,17,5.2,34.3,7.8,51.5c0.7,5.1,4.3,7.2,8.1,4c7.5-6.5,16-6.8,25.2-6.6c17.3,0.4,34.7-0.3,52,1.7c8.2,0.9,16.7-0.2,25-0.7
		c3-0.2,5.1-2.1,6.2-4.9c1-2.5-0.1-5-1.8-6c-10.4-6.4-11.2-19-18.2-27.7c-3.1-3.9-1.2-9.8,0.3-14.7c1.8-5.7-0.2-9.7-5.3-12.6
		c-10.3-5.9-18.1-15.1-27.5-22c-16-11.8-27.7-27.6-41.4-41.6c-5-5.2-9.6-8.9-17.4-6.8c-3.2,0.9-5.3-2.2-4.8-5.2
		c1.7-10.7,1.6-21.1-2.2-31.5c-1-2.8,0.1-6.6,0.9-9.8c2-8,1.6-15.4-2.7-22.7c-1.9-3.3-2.6-7.3-4.1-10.9c-2.3-5.5-2.6-10.8,0-16.2
		c5.7-11.7,5.5-23.8,2.6-36.1c-2.3-9.5-5.5-17.5-16.3-21.3c-6.5-2.3-11.9-8.2-17.1-13.2c-4.7-4.6-9.7-5-15.4-3.6
		c-2.7,0.7-5.7,1.1-7.9,2.7c-11.4,8-24.1,14.3-32.6,26c-6,8.3-13.1,15.3-23.4,18.1c-9.2,2.6-10.4,12.7-7.6,19.3
		c0.7,1.5,1.3,3.2,2.5,4.4c6.1,6.3,6.5,12.4,0.8,19.3c-3.2,3.8-1.4,8.7-0.6,13c2.1,10.6,2.4,20.8,0.2,31.6
		c-2.2,10.3-2.6,21.1,4,30.8c1.7,2.6-0.7,7-3.8,8.1c-2.1,0.8-4.4,1.9-6.5,1.6c-9.3-1.1-14.5,4.3-19,11.2c-3.1,4.7-7.1,8.8-9.5,13.8
		c-9.1,19-23.2,34.2-37,49.5c-5.9,6.6-13.4,11.8-20.3,17.5c-2.2,1.9-5.9,0.8-7-1.8c-2-4.8-2.6-9.7-1.2-14.8
		c1.7-6.1,0.9-12.1-0.5-18.3c-1-4.3-1-8.9-1.3-13.3c-0.2-2.8,0.5-5.8-0.3-8.4c-7.9-29.2-5.2-58.8-3-88.4c0.9-11.7,0.9-23.5,2.3-35.2
		c1.5-12.4-1.8-24.4-2-36.7c-0.1-10.1-0.5-20.1-0.3-30.2c0.1-5.6,0.2-11.3-0.5-16.8c-2-13.9-3.4-27.4,2.9-41
		c2.6-5.7,1.2-13.3,2.1-19.9c0.6-4.6,4.3-6.7,8.5-5.2c17.8,6.7,35.8,12.9,53.2,20.6c13.1,5.9,26.3,4.6,39.6,3.9
		c4.2-0.2,6.9-3.4,8.2-7.5c0.7-2.3,0.5-4.5-2.1-5.5c-2.1-0.8-4.4-1-6.5-1.7c-7.6-2.6-12.7-7-11.9-15.9c0-0.6,0-1.1,0-1.7
		c-1.7-12-8.2-15.7-18.6-8.9c-8.7,5.6-16.8,7-26.9,5.3c-11-1.8-22.3-0.5-33.4-3c-4.5-1-9.3,0-11.8,4.5c-3.1,5.6-8.5,6.9-13.6,9
		c-6.8,2.8-6.8,2.8-8.6-4.1c-2-7.9-3.7-9.8-11-9.7c-7.8,0.1-15.6-1.1-23.4,1.5c-4.7,1.6-9.9,1.7-14.9,2.6
		c-7.5,1.4-14.4-0.3-21.2-3.3c-4.6-2.1-9.3-4-13.9-5.9c-4.3-1.7-8.7-1.8-13.2-1c-4.8,0.9-8.7,3.5-9.1,8.5
		c-1.3,16.3-5.4,31.9-11.8,46.9c-1,2.4-0.5,5.5-0.4,8.3c0.8,15.1,2,30.2,2.6,45.3c0.2,5.8,1.2,11,4.9,15.7c1.6,2.1,2.6,5,3.1,7.6
		c0.5,2.4,1.5,5.8-2.4,6.7c-2.7,0.6-4.5-1.6-4.9-3.6c-2-10.1-9.6-17.6-12.6-27.2c-0.8-2.6-2.6-5-4.1-7.3c-3.1-5-7.1-8.8-13.6-8.1
		c-4.5,0.5-7.5-1.6-9.2-5.7c-0.7-1.5-1-3.4-2.1-4.5c-9.3-9.2-9.4-18.4-0.7-28.1c2.4-2.6,2.3-6.2,2.9-9.5c1.3-7.2,2.5-14.3,6-20.9
		c1.3-2.4,1.6-5.3,2.3-8c1.5-5.9-6.9-11.3-1.1-17.3c4.6-4.8,2.5-10.6,2.8-16c0.1-1.7,0.4-3.3,0.9-4.9c1.1-3.3,3-6.1,6.7-6.8
		c4.4-0.9,8.8-1.7,13.2-2.6c9.3-1.8,18.6-3.9,28-5.3c5.5-0.9,11.1-1.1,16.7-1.2c10.6-0.2,21.3-0.3,31.9,0c4.4,0.1,8.4,4.6,12.9,2.8
		c10.2-4.1,21-3,31.4-4.5c20-2.8,40.1-3.7,60.3-1.7c3.9,0.4,8,1.1,11.7,0.3c9.3-1.9,17.8,1.9,26.3,3.9c6.8,1.6,12.7,6.7,20.5,6.1
		c3.6-0.3,5.4,3.7,8,5.7c5.4,4.3,11.6,5.2,17.2,1.3c10.7-7.3,24.1-9.4,33.7-18.7c3.1-3,7.4-2.4,11.1-0.8c5.5,2.3,10.7,1.5,16.4,0.6
		c12.1-2,24.3-3.4,36-7.3c4.1-1.4,9-1.6,13.3-1c8.4,1,16.7,1.4,25-0.2c6.2-1.2,11.4,1.7,14.9,6.1c7.1,9,18.8,12.4,25.2,22
		c0.6,0.8,1.8,1.5,2.8,1.7c11.7,2.1,17.3,11.4,23.5,20c3.4,4.7,6.2,5.4,11.5,3.3c10.1-3.9,17.7-11.7,26.2-17.9
		c9-6.7,17.1-13.6,28.9-15.9c8.5-1.7,16.2-7.3,24.1-11.3c8.7-4.4,17.5-7.3,27.4-5.1c2.7,0.6,5.8,0.7,8.3,0c8.1-2.4,15.3-2.5,21.1,5
		c2.6,3.4,7.1,2.8,11,2.7c12.3-0.1,24.8,0.5,37-0.9c16.1-1.8,31.1,2.8,46.5,5.2c9.9,1.5,19.7,3.7,29.6,5.4c4.2,0.7,7.7-1.1,10.3-4.4
		c1-1.3,2.1-2.7,2.7-4.2c6.2-16.2,15.3-31,22.2-46.8c4.6-10.6,8.5-21.9,9.5-33.7c0.4-5,1.5-10,2.1-15c0.5-3.4,1.2-6.5,3.5-9.2
		c8.7-10.3,10.8-21.6,5.7-34.3c-2.8-6.9-1-14,2.7-19.3c5.5-7.9,6.3-16.5,7.6-25.3c1.2-7.8,0.1-14.6-7.2-19
		c-5.2-3.2-5.9-7.9-4.6-13.2c1.5-6,2.5-12.2,5.1-17.7c2.6-5.6,5.2-11.1,6.4-17.2c1.7-9,10-14.7,12.2-23.6c0.3-1.3,2.3-2.4,3.7-3.2
		c10.2-5.6,19.6-12.6,31.5-15.2c5-1.1,8.7-1.1,12.4,1.9c5,3.9,9.8,7.7,16.7,4.2c2.9-1.5,5.5,0.1,7.6,2c8.4,7.4,17.9,8.8,28.2,5
		c3.9-1.5,7.5-1.9,11.4-0.3c1,0.4,2.3,1.3,3.1,1c9.9-3.2,18.3,0.9,27.2,4.4c6.6,2.6,14.4,0.5,21.1,3.7c0.5,0.2,1.2,0.2,1.6,0
		c13-8.8,26,0.9,39.1,0c6.8-0.5,10.4,4.3,14,10.1c7.9,12.4,8.7,25.7,9.6,39.8c1.6,24.3-2.8,47.9-5.2,71.8c-0.5,4.6-2,8.6-3.6,12.8
		c-8.5,23.1-8.9,45.9,3.5,68.1c5.7,10.2,10.4,20.9,15.9,31.2c3.5,6.5,6.8,12.8,8,20.2c0.6,3.9,3.5,5.6,7.1,5.8
		c3.3,0.2,6.7-0.2,10.1-0.2c14.5,0.2,28.9,0.4,41.9,8.4c1.3,0.8,3.2,1,4.8,1.2c15,1.3,29.9,2.9,44.1,8.9c6.4,2.7,13.2,2.5,18.7-3.1
		c2.1-2.1,4.7-2.6,7.7-1.4c15.8,6.4,31.9,4.1,47.9,1.8c13.7-2,27.3-6.2,41.2-1c1.8,0.7,4.4-0.1,6.4-0.8c8.5-3.2,17.1-5.2,26.3-4.4
		c2.1,0.2,4.7-0.2,6.5-1.3c9.8-5.8,20.6-4.8,31.2-4.6c12.8,0.2,25.5-0.9,38.3,2.5c8.9,2.3,18.7-0.5,28.2,2.4
		c6.2,1.9,11.3,2.8,14.1,9.6c2.1,5.1,6.3,5.7,11.2,3.6c0.5-0.2,1.1-0.4,1.5-0.7c7.7-7.6,16.8-10.5,27.5-8.7c2.8,0.5,5.7-0.5,7.8-2.6
		c9.7-9.4,22.8-8.3,34.6-10.9c4.6-1,8.6,1.7,12.7,3.4c9.9,3.9,19.9,7.4,29.8,11.3c6.1,2.3,11.7,2.1,17.8-0.4
		c7.8-3.2,15.9-5.5,22.4-11.1c2.8-2.4,6.3-2.9,9.5-1.7c15.7,5.5,31,1.3,46.1-1.9c7.8-1.7,15.5-3,23.2-2c7.8,1,15.5,1.9,23.4,0.6
		c3.5-0.6,7-0.3,9.6,2c6,5.2,14.7,4,20.6,10.3c3.9,4.2,10.9,3.7,15.8,0.5c10.4-6.8,23.5-7.7,33-16.2c3.2-2.8,7.4-2.1,11.3-0.9
		c13.4,4.1,26.7,0.8,39.6-1.4c11.6-2,22.8-5,34.7-2.2c4.2,1,8.9,0.2,13.4,0.1c2.8,0,6-0.9,8.3,0.1c15.2,6.8,30.9,1.6,46.3,1.7
		c7.8,0.1,15.6-1.3,23.1,2c4.3,1.9,8.4,1,13,0.2c14.9-2.4,30-4,45-5.6c6.1-0.6,12.3-0.3,18.4-0.7c7.3-0.4,14.5-0.9,21.7,1
		c4.2,1.1,8.9,1.5,13.3,1c11.6-1.2,22.2,1.7,32.4,6.4c8,3.6,15.9,4.4,24.1,0.8c4.7-2.1,9.8-1.5,14.7-2.2c11.4-1.5,23.6,1,34-6.4
		c4.1-2.9,8.7-0.2,13.1-0.2c3.3,0,5.5-1.5,5.2-5c-0.8-8.3,0.1-17-3.5-24.9c-3.2-7.2-1.6-13.6,3.1-18.8c7.3-8.1,8.8-19.5,16.7-27.1
		c1.1-1.1,2-3.1,1.9-4.5c-0.9-9.1,5.3-14.9,10.4-20.2c5.7-6,9.7-12,10.7-20.1c1-7.5,6.3-10.8,12.8-10.8c10.2,0,20.1-0.3,29.1-5.9
		c3.1-2,6.7-0.1,9.7,1.1c14.9,6,29.4,5.3,44.1-0.8c11.3-4.8,22-0.2,32.5,3.2c3.7,1.2,6.9,3.8,10.6,5.1c7,2.4,10.1,7.7,13.7,13.8
		c7.8,13.1,8.9,27.5,10.7,41.8c0.4,2.9-0.2,5.6-1.5,8.1c-4.3,8.3-4.1,17.3-4.2,26.3c-0.1,4.6,0.4,8.9,3,12.9
		c4.2,6.6,4.5,13.7,2.3,21c-1.5,4.9-1.5,10-0.3,15c1.2,5,1,10,0,15c-1.7,9-2,17.7,5,25.2c2.3,2.4,2.7,6.3,0,9.3
		c-4.7,5.1-5,11.1-4,17.3c1.7,9.6,0,18.9-0.7,28.4c-0.9,12-5.5,24.2,0.4,36.3c1.7,3.6-0.8,7.6-2,11.3c-2,5.9-2.4,11.5-1.2,18
		c2,10.4,0.8,21.2,3.4,31.6c1.2,4.6-1.1,8.9-3.7,12.6c-3.5,5.1-3.5,10.5-2.1,16.1c4.2,17,4.8,34.1,3.7,51.6
		c-1.1,16.7-1.3,33.6,1,50.4c1.4,10.5,2.2,21.1-0.7,31.8c-1.1,4.2-0.8,8.9-0.9,13.4c-0.1,2.8,0.1,5.6,0.6,8.4
		c1,5.9-4.3,10.8-3.2,16.2c1.1,5.4,4.6,10.2,5,15.9c0.6,8-0.8,15.9-5.6,22.3c-4.1,5.5-6.3,10.2-2.2,16.7c2.9,4.6,0.2,8.7-3.1,12
		c-17.7,18-38.8,25.8-64,21.8c-2.8-0.4-5.7-1.2-8.3-0.7c-12.9,2.4-25.4-2.8-38.4-1.2c-6.1,0.8-12.1-2.5-17.3-5.7
		c-10.2-6.2-20.3-7.1-32.1-4.2c-20.6,5.1-41,11.6-62.3,13.4c-11.9,5.7-23.2,6.4-33.9-3.1c-3.4-3-8.2-2.9-12.7-0.7
		c-2.4,1.2-5.5,2-8.1,1.6c-15.4-2.8-31.3-2.4-46.3-7.9c-3.2-1.2-7.1-1.7-8.7-4.7c-4.6-8.4-12.7-12.2-20.1-17.3c-5-3.4-9.8-7.5-13-13
		c-1.7-3-4.4-5.1-7.9-5.8c-4.7-1.1-8.9-0.6-12,3.7c-6.7,9.3-17,14.6-25,22.4c-6,5.8-14.3,7.5-21.8,7.8c-11.6,0.4-21.7,4.9-32.1,8.8
		c-12.7,4.8-25.4,8.9-39.2,7.9c-6.4-0.4-12.1,2.1-17.8,4.5c-5.9,2.5-11.5,3.9-17.7,0.5c-5.8-3.2-11.9-2.6-18-0.5
		c-10.1,3.4-19.6,3.6-28.2-4.1c-2.6-2.3-6-3.5-9.4-2.1c-12.6,5.4-24.2,0.2-36-2.8c-3.8-1-7.4-3.8-11.1-3.7
		c-15,0.2-24.6-9.3-34.7-18.1c-1.3-1.1-2.3-2.4-3.5-3.6c-8.2-8-9.7-7.7-12.2,2.9c-0.8,3.4-1.8,6.4-3.7,9.2c-3,4.6-7.2,7.8-12.6,6.4
		c-6.2-1.6-10.8,0.4-15.7,3.6c-8.3,5.5-17.2,7.7-27.2,6.1c-4.4-0.7-9.1-0.7-13.4,0.2c-6.2,1.2-12.1,1.3-18.2-0.3
		c-9.4-2.5-18.7,2.4-28.3,0.6c-3.1-0.6-5.9,2.7-8.4,5.1c-2.7,2.7-5.7,3-9.2,1.7c-12-4.6-24.1-9-36.1-13.5c-4.7-1.8-6.9-5.5-6.8-10.5
		c0-3.4-0.1-6.7,0.1-10.1c0.5-8.3-1-15.7-8.8-20.4c-3.2-1.9-4.5-5.2-3.9-8.7c1.2-7.5,0.1-15.7,7.5-21.4c4.7-3.6,5.7-9.6,4.2-15.4
		c-1.7-6.5-3.5-13-5.7-19.3c-1.7-4.9-2.7-9.6-2.1-14.8c0.7-6.8,3.4-12.1,10.7-13.2c9.2-1.4,14.9-6.4,18.7-14.8
		C2522.7,1780.9,2527.3,1777.4,2533,1776z M3224.6,1453.1c6.3-0.3,9.4-4.3,11.4-9.7c1.4-3.8,1.4-7.7,1.2-11.6
		c-0.1-3.4,0.1-6.8,2-9.7c0.6-0.9,1.6-1.9,2.5-2c0.9-0.1,2.2,0.6,2.8,1.3c2.9,3.4,3.4,8.2,7.2,11.1c7.7,5.9,12.8,14.1,18.1,22
		c7.7,11.6,13,24.7,21.6,35.8c1.9,2.4,2.2,6.4,2.3,9.6c0.4,15.1,0.5,30.3,0.6,45.4c0.2,30.2-3.5,60.4-0.2,90.6
		c1.2,11.2-0.7,20.9-7.6,30c-8.4,11-12.7,23.6-12.1,37.6c0.1,3.3-0.4,6.7-0.6,10.1c-0.5,8,0.3,15.6,4.6,22.7
		c3.5,5.8,5.2,12.2,6.4,19c1.6,9.2-0.9,16.4-8.1,22.3c-8.2,6.8-16.4,13.6-24.3,20.6c-11.3,10.1-21.5,21-27.9,35.2
		c-3.9,8.6-8.9,16.8-15.2,24c-4,4.6-8.5,7.1-14.6,6.9c-10.6-0.3-21.2-0.9-31.6-3.7c-16.7-4.5-30.2-13.6-42.4-25.8
		c-9.7-9.7-21.3-17.1-36-12.3c-17.5,5.8-36,8.1-53.1,15.2c-2.1,0.9-4.3,1.4-6.4,1.9c-5.6,1.3-8.3-0.6-8.9-6.7
		c-0.7-6.7-1.2-13-5.6-18.9c-8.3-11-11.3-8-19.9-4.8c-4.6,1.7-6.7,5.8-7.4,10.5c-0.8,5.2,2.2,20.6,4.5,22.5
		c5.6,4.6,11.7,1.9,17.7,1.1c7.7-1,10,0.2,11.4,8.5c1.4,7.7,5,13.4,10.6,18.5c2.5,2.3,4.4,5.1,6.8,7.5c9.1,9,18.1,18.2,27.6,26.8
		c4.9,4.4,10.7,7.9,17.7,9.2c4.3,0.8,8.4,3,12.5,4.8c3.3,1.5,6.7,1.9,9.4-0.6c6.1-5.7,13.3-4.8,20.6-3.9c23.6,2.8,47-0.3,70.4-1.7
		c4.5-0.3,9.7-1.1,12-5.2c4.6-8.3,11.9-12.5,19.5-17.2c5.1-3.2,8.7-8.6,13.3-12.8c4.5-4.1,8.9-4.4,13.7-1.5
		c10,6.1,11.9,16.1,4.9,25.3c-1,1.3-2.5,2.3-3.5,3.6c-3.1,4-1.6,7.9,3.2,8.3c8.4,0.8,16.8-0.1,25-1.9c12.7-2.7,25.6-2.4,38.4-2.6
		c12.6-0.2,12.7,0.5,13.1-12.4c0.1-2.8,0.2-5.6,0-8.4c-0.3-4.9,1.2-9,5.5-11.5c6.5-3.7,7.4-9.3,6.3-15.8c-1.5-8.4-1.6-16.8,1.7-24.8
		c4.2-10.2,4.6-20.8,2.9-31.4c-1.3-8.5-1.7-16.6,1.3-24.8c0.9-2.4,1-5.7,0.2-8.2c-3.5-11.3-2.7-23.4-6.9-34.6
		c-2.3-5.9-1.4-12,1.1-18c3.2-7.8,5.2-16,5.2-24.5c-0.1-21.2,1.7-42.6-4-63.5c-2.4-8.8-3.8-17.5,1.9-25.9c2-2.9,1-6.5,1-9.8
		c-0.1-6.1,0-12.3,0.4-18.4c0.6-8.4,1.3-16.8,2.5-25.1c1.3-8.7-0.7-16.7-4.3-24.4c-1.2-2.5-2.7-4.9-3.7-7.5
		c-1.4-3.8-1.8-8.4,0.9-11.3c7.9-8.4,8-17.8,5.5-28c-0.5-2.1-0.1-4.5,0.4-6.6c0.7-2.9,0.8-5.8-0.9-8.1c-5.8-7.4-4.2-14.5,0.1-21.8
		c0.8-1.4,1.8-3.1,1.8-4.7c0-15.5,1.3-31.3-2.4-46.5c-1.7-7.1-4.1-13.6-3.6-21.1c0.4-6.6-2.4-9.6-8.8-10
		c-10.6-0.6-21.2-0.6-31.9-0.6c-2.1,0-4.5,0.7-6.3,1.9c-7.5,4.9-15.5,6.9-23.9,3c-8.6-4-17.9,3.2-26.3-2c-0.5-0.3-0.9-0.7-1.4-0.9
		c-5.8-2.1-8.2-0.6-8.4,5.8c-0.3,9-0.3,17.9-0.3,26.9c0,5.1,0.2,10.2-5.4,13c-0.9,0.4-2.1,1.6-2,2.3c0.5,12-9.1,23.3-2.4,36
		C3229.3,1448.9,3228.2,1452.2,3224.6,1453.1c0.2,1.6,0.5,3.3,0.3,4.9c-1.8,13.7-7.1,24.3-22.7,26.3c-3.3,0.4-6.4,2-9.6,2.9
		c-12.9,3.8-25.6,9.1-38.7,10.8c-9.7,1.3-14.7,6.9-20.5,12.7c-0.6,0.6-0.8,2.3-0.4,2.9c0.4,0.7,2.1,1.5,2.8,1.2
		c8.5-3.9,17.2-4.5,26.1-2c5.9,1.7,11.7,3.7,17.5,5.8c5.8,2.1,11.5,4.7,17.8,4.3c5.7-0.3,9.4,2.5,12.2,7.2
		c4.4,7.3,10.9,12.8,17,18.5c4.1,3.8,7.7,3.7,12.1,0.7c5-3.4,6.7-8,4.4-13c-1.6-3.6-4.2-6.7-5.6-10.3c-3.4-9.2-5.4-18.4,3.5-26.1
		c3.3-2.9,3.6-6.5,2.1-10.7c-1.5-4.2-2.8-8.6-3.3-13c-0.7-6.5-3-11.7-8.3-15.8C3228.8,1458.5,3226.9,1455.6,3224.6,1453.1z
		 M1801.8,1355.4c-0.5,0.3-1,0.6-1.3,1c-4.3,5.8-2.9,13-4.4,19.4c-1.7,7.3-8.9,11.7-9.5,19.4c-0.1,1.7-0.8,3.3-1,4.9
		c-1,8.1-4.6,15.1-9.9,21c-5,5.6-7.9,11.9-10.2,19c-5.8,18.2-12.3,36-26.5,49.8c-4,3.9-6.4,9.2-7.2,14.9c-0.9,6.1-1.8,12.2-2.5,18.3
		c-0.5,4.2,0.8,7.8,4.2,10.4c2.2,1.7,4.5,3.5,6.9,4.7c12.5,6.5,17.7,18.2,22.1,30.5c0.7,1.9,0.7,4.9-0.4,6.4
		c-6.1,8.5-5.3,18-5.3,27.5c0.1,22.5-1.5,23.9-23.6,24.2c-12.8,0.2-25.6-1.2-38.2,3.3c-7.9,2.8-14.1-1.9-18.6-8.2
		c-1.9-2.7-2.8-6.1-4.2-9.1c-4.3-9.3-11.3-15-21.8-16.2c-12.2-1.4-24.4-3.5-36.2-7.2c-6.3-2-11.8-0.3-17.6,2.8
		c-10.6,5.7-18.9,13.9-27.3,22.1c-4.1,4-4.7,7.9-1,11.9c4.6,5.1,7.6,11.1,11.5,16.5c4.4,6.2,9.9,10.2,17.8,11.2
		c8.3,1.1,16.4,3.4,25,2.9c3.3-0.2,7-0.2,9.9,1.1c12.7,5.5,26.1,6.2,39.6,5.9c5.8-0.1,11.1,1,16.3,3.3c7.1,3.2,14.6,5.9,21.5,9.4
		c8,4.1,16.5,6.7,24.9,9.7c5.8,2.1,12.2,4.7,13.7,11.3c2.1,9.2,6.3,18,5.2,27.9c-0.7,5.5,0.4,11.2-0.1,16.8
		c-1.1,13.8,4.9,27.9-1.2,41.6c-0.4,0.9-0.2,2.3,0.2,3.3c3.2,7.9,3.8,16.3,5.4,24.5c1.2,6.3,4.8,11.2,9.5,15.5
		c3.7,3.4,7.4,6.9,10.7,10.6c2,2.3,2.1,5.3,0.2,7.8c-1.7,2.2-3.9,4-5.8,6.1c-8.6,9.6-17.9,18.8-23.8,30.2c-4,7.6-9.3,13.9-14.7,20.3
		c-5.7,6.8-11.9,11.5-21.8,9.4c-4.2-0.9-9,0.1-13.3,1.2c-9.3,2.4-18.8,2.9-28.3,2.8c-12.5-0.1-24.5,2.6-36,7.4
		c-4.3,1.8-5.4,6.1-2,9.4c8.9,8.6,18.8,16,30.4,20.6c10.3,4.1,15,1.6,19.3-9.1c0.4-1,0.5-2.2,0.9-3.2c1.3-3.8,4.3-4.8,8-4.7
		c3.5,0,6.5,1,9.4,3.1c4.1,2.9,8.4,5.6,12.7,8.3c5.4,3.5,10.5,3,15.3-1.3c6.3-5.5,12.8-10.9,19.3-16.2c5.9-4.9,9.9-4.8,14.3,0.3
		c2.2,2.5,3.7,5.6,5.7,8.3c4.7,6.4,11.1,7,17.2,1.7c3.8-3.3,7.6-6.6,11.1-10.2c6.2-6.2,5.8-10-1.7-16c-2.2-1.8-5-3.4-3.6-6.6
		c1.1-2.6,4-3.8,6.9-4.1c2.2-0.2,4.5-0.5,6.7-0.3c5.1,0.6,8.5-1.6,11.1-5.8c1.7-2.9,3.9-5.5,5.9-8.2c3.2-4.2,4.9-8.7,3.2-14.1
		c-0.6-2.1-0.9-4.6-0.4-6.6c0.5-1.9,2.1-4.4,3.8-5.1c5.9-2.4,12.2-0.9,18.2-0.1c4.1,0.6,5.2,5.5,7.5,8.6c2.8,3.9,3.8,8,1.1,12.5
		c-1.1,1.9-1.7,4.1-2.4,6.3c-1.9,6.2-1,12.3,1.4,18.1c2.3,5.4,8,5.4,12.8,6.8c9.6,2.9,10.5,4.7,7.4,14.5c-0.3,1.1-0.8,2.1-1.2,3.2
		c-3.6,11.5,3.9,20.2,15.7,18.3c5.2-0.8,9.3-3.7,13.7-6.2c9.2-5.1,9.7-6.1,8.2-15.8c-2.2-14.9-1.4-15.3,14.1-13.4
		c8.3,1,16.8,0.1,25.2-0.1c5-0.1,8.8,1.6,11,6.1c3.9,8.4,11,15.8,8,26.5c-0.5,1.9,0.6,4.4,1.4,6.5c3.3,8.5,2.8,16.4-2.5,24
		c-1.7,2.4-2.4,5-1.3,7.9c4.9,12.8,10.8,24.7,24.5,30.5c7.9,3.3,14.4,8.6,20.1,14.9c3.4,3.8,7.6,6.6,12.2,8.9
		c3.8,1.9,7.3,2.8,10.8-0.4c4.9-4.4,9.9-5,14.9-0.1c3.5,3.4,7.9,4.5,12.4,4c6.6-0.8,12.2,0.5,16.7,5.6c4.5,5.1,10,6,16.8,4.8
		c7.7-1.4,15.7-2.2,23.4-1.5c14.8,1.3,29-1.4,43.3-3.9c23.4-4,45.2-12.9,67.3-20.9c7.8-2.8,15.2-7.1,22.5-11.1c1.8-1,3.7-3,4.3-4.9
		c3-9.7,10.2-17.2,13.2-27.1c2-6.7,7.1-12.6,10.7-18.8c1.4-2.4,3.3-4.6,4.2-7.2c4.7-12.6-0.1-18.2-13.2-15.9c-2.2,0.4-4.4,1-6.5,1.6
		c-8.7,2.3-17.3,4.7-25.9,7.1c-16.7,4.6-33.5,9-50.1,13.9c-4.2,1.2-8.5,3.2-12,5.9c-8.1,6.2-17.7,9.5-26.4,14.5
		c-6.3,3.6-12.9,3.9-19.5,2.3c-9.2-2.2-18.3-5-27.3-7.7c-2.6-0.8-5.6-2-5.5-5.4c0.1-4.2,3.9-3.5,6.3-3.4c3.9,0.1,7.8,0.9,11.5,1.8
		c10.8,2.7,19.8,0.1,26.5-9c5.7-7.8,12.4-14.5,20.9-19.2c6.1-3.4,9.8-9.1,14.5-13.8c2.5-2.6,3.5-5.8,3.1-9.3
		c-1.5-11.4,0.4-22.3,4.6-32.9c3.5-9.1-2-16.2-6.6-23.1c-0.9-1.4-4-1.9-6.1-2.2c-15-1.6-27.8,3.3-37.5,14.6
		c-7.2,8.3-15.7,12.1-26.4,12.2c-6.2,0.1-12.2,0.3-18.4-0.6c-13.2-1.9-26.4-4.5-39.6,1c-4.7,2-10,0.9-14.4-2.2
		c-6.5-4.4-12.9-8.8-19.4-13.2c-8-5.4-17.2-10.1-28-5.8c-8.3,3.3-13.9,0.4-17.6-7.3c-2-4.2-2.5-8.7-2-13.1
		c1.1-8.1,0.6-15.5-5.7-21.9c-2.1-2.2-3.3-6.1-3.4-9.2c-0.2-7.2-2.3-13-7.9-17.8c-4.3-3.8-4.6-8.7-1.5-13.7c0.9-1.4,1.5-3,2.5-4.4
		c3.1-4.6,3.6-9.1,0.4-14.1c-3.1-4.8-2-9.8,1.1-14.2c4.1-5.8,5.1-12.2,5.2-19.1c0-5.6,0.5-11.2,1.5-16.7c1.3-7.7,3.4-15.3,5-22.9
		c4.3-20.8,3.6-42.4,11.3-62.6c1-2.5,0.5-5.6,1-8.3c0.8-5,1.4-10,2.9-14.8c5.2-17.2,8.6-34.7,10.9-52.5c1.3-9.5,5-18.6,12.7-24.9
		c10.4-8.5,20.2-17.9,32.4-23.7c8.2-3.9,9.8-9.7,9-17.6c-0.4-4.5-1.4-8.8-3.6-12.8c-7.9-14.8-16.5-29.3-23.3-44.6
		c-6.2-14.1-15.8-27.3-14.4-44c0.1-1.4-0.9-2.1-2.3-1.7c-1,0.3-2.5,0.6-2.8,1.3c-4.9,11.1-12.9,20.9-13,33.8c0,2.7-1.4,5.5-2.6,8
		c-2.1,4.3-2.3,8.5-0.5,13c2.2,5.4,2.4,10.9-0.4,16.3c-2.4,4.5-1.3,8.6,1.8,12.4c4.8,5.9,3.6,11.4-1.8,16.2
		c-5.8,5.2-8.2,12-8.2,19.5c0.1,11.6-4.5,22-9.4,31.9c-3.8,7.8-6.3,15.5-6.2,24c0.1,8.5-1,16.8-5.1,24.4c-3.7,6.9-4.4,14.3-1.4,21.1
		c3.5,7.9,1.3,14.2-3,20.4c-5.2,7.4-9.8,14.8-10,24.3c-0.1,3.2-1.5,6.7-3.4,9.4c-4.8,6.6-6.6,14.1-8,21.9
		c-2.3,12.1-4.9,24.1-7.1,36.2c-1,5.8,0,11.2,4.5,15.5c4.4,4.2,5.7,9.4,5,15.4c-0.4,3.3-0.5,6.7-0.5,10.1c0.1,11.1-6.3,20.2-9,30.4
		c-8.5,7.5-13.9,17.4-20.1,26.7c-2.1,3.1-5.3,4.6-8.7,2.4c-7.3-4.7-16.1-4.5-23.9-7.5c-4.8-1.8-10-2.1-14.8,0.3
		c-5.7,2.9-11,1.4-16-1.3c-6-3.2-11.9-6.2-19-6.1c-5.6,0.1-11.3-0.5-16.8,0.1c-13.9,1.6-15.6-1.6-17.9-15.8
		c-0.6-3.8-0.1-7.8,0.1-11.7c0.3-5.6,1.6-11.3,1-16.7c-1.8-17.3-2.2-34.3,0.5-51.7c2.3-14.8,0.8-30.2,1-45.4
		c0.2-19.6-1.5-39.2,2.5-58.7c0.8-3.8,0.2-7.8,0.2-11.7c0-6.2-0.1-12.3,0.1-18.5c0.3-9.5,1-19-1-28.5c-0.6-2.6-0.4-5.5,0-8.2
		c1.4-9.4,2.9-18.8,4.6-28.2c2-10.5,2.7-20.9,0.7-31.7c-1.5-8.2-2.9-16.9-0.1-25c5.4-15.7,7-31.6,4.4-47.9c-0.8-5.1-1.1-10.4,2-14.7
		c6.8-9.5,5.8-20.2,5.3-30.8C1805.6,1360.6,1805.4,1357,1801.8,1355.4z M2998.9,1778.6c-0.8-5.6-1.7-12.8-2.8-20
		c-0.7-4.7-3.5-8.2-7.6-10.5c-3.9-2.2-7.7-4.6-11.8-6.5c-6.4-2.9-12.8-4-18.8,1.2c-5.7,4.9-10.8,3.5-16.6-0.7
		c-9.7-7.2-10.2-7.1-20.4,0.2c-4.2,3-7.6,4.1-12.1,1.2c-4.6-3-9.5-2.6-14.4-0.2c-4.3,2.1-8.5,2.7-12.7-0.2c-3.6-2.4-7.4-2-11.3-0.8
		c-3.2,0.9-6.7,2.7-9.7,2.1c-7.7-1.6-14.9-3.5-21.9,2.4c-2.1,1.8-5.4,0.1-8.1-0.8c-5.5-1.8-10.9-2.4-16,1.3c-2.3,1.7-5.5,2.8-7.9,1
		c-5.9-4.3-11.3-3.5-17,0.2c-4.9,3.2-9.5,2.1-13.8-1.6c-3-2.5-5.8-5.2-10-5.9c-4.9-0.8-9.4,3.3-8,7.8c0.8,2.7,1.9,5.3,3.4,7.6
		c3.4,5.2,4,10,0.5,15.6c-3.3,5.3-1.9,10.7,1.3,15.8c3,4.7,6.2,9.5,8.2,14.6c3.9,10.1,8.2,19.6,19.2,24.1c1.8,0.7,2.7,3.4,4.2,5.1
		c5.7,6.3,8.4,6.6,15.9,2.2c1.4-0.8,2.6-2.1,4-3.1c3.7-2.6,7.3-2.2,10.9,0.3c2.3,1.6,4.7,3.1,6.7,5c1.1,1.1,2.3,2.8,2.2,4.2
		c-0.1,2.3-2,4.1-4.3,4.5c-16,2.9-31.9,6.8-48,0.3c-4.7-1.9-9.5-3.9-14.7-2.7c-10.9,2.5-21.9,4.7-32.6,8
		c-13.3,4.2-26.3,9.4-39.5,14.1c-2,0.7-4.5,1-5,3.6c-0.5,2.6,1.2,4.6,3.1,5.5c7.8,3.6,13.2,10.2,19.5,15.6
		c9.8,8.2,20.2,16.2,34.1,16.4c2.2,0,4.6,0.3,6.5,1.2c5,2.6,9.7,2,14.4-0.5c8.7-4.6,16-2.7,22.6,4.5c2.1,2.3,5.8,4.9,8.6,4.6
		c8.7-0.8,17.6,2.6,26.2-2.2c4.2-2.3,9.8-5.1,14.5-2.8c9.8,4.9,19.9,1.6,29.8,2.6c6.7,0.7,12-0.7,16.1-6.5c2.5-3.5,6.4-4.2,10.5-2.5
		c2.6,1.1,5.2,2,7.8,3.2c4.2,1.9,8.5,0.9,10.4-2.7c6.2-11.8,17.6-14.9,28.8-18.4c5.5-1.7,9.8-4.8,14.4-7.9c9-6.1,11.5-16,17-24.2
		c3.4-5,0.8-10.2-5.4-11.2c-12.8-2.1-24.7-7-37.1-10.6c-13.9-4.1-27.8-8.9-42.7-7.7c-6.2,0.5-9.8-4.9-6.8-9.8
		c4.3-7.1,8.4-14.2,11.4-22.1c2.1-5.5,8-9.1,13.8-7.2c9.6,3.2,20.3,1.5,29.1,7.4c5.1,3.4,9.4,2.7,13.5-1.5c2.6-2.7,5.8-3,9.2-3.2
		c8-0.6,15.4,0.9,23,3.3C2992.3,1794.5,2998.7,1789.5,2998.9,1778.6z M3102.9,1733.3c0.2,0,0.3,0,0.5,0c-0.1,1.1-0.1,2.2-0.2,3.4
		c-0.8,19.5-3,39.3,9.2,56.7c0.6,0.9,0.6,2.1,1,3.2c3.4,11.6,10.4,19,22.4,22.7c9,2.8,18.4,4.6,26.4,10.5c5.9,4.4,10.6,3.8,14.3-2.3
		c5.3-8.8,12.5-12.4,22.3-11.6c5.9,0.5,9.5-2.6,11.9-7.5c1.5-3,3.3-6,3.9-9.2c1.9-9.5,6.3-16.5,16-19.7c5.3-1.8,7.5-6.3,7.5-12
		c0.1-13.4,1.3-27-6.8-39.1c-4.8-7.2-3.4-13.5,3.4-19.1c3.9-3.3,6.8-8,6.3-13.2c-1.1-11-0.9-22.6-8.4-32c-3.7-4.6-5-9.9-5.7-15.5
		c-2.6-19.9-19-29.4-31.8-41.5c-0.7-0.7-2.1-1.2-3.1-1.1c-6.7,0.4-11.6-3.5-17-6.5c-6.9-3.7-13.9-4.1-20.9-0.3
		c-5,2.7-10,4.1-15.8,4.7c-15,1.6-26.7,8.1-29.5,24.8c-0.3,1.6-1.3,3.1-2.1,4.6c-5.2,9.5-4.7,19.4-2,29.4c0.7,2.7,1.5,5.4,2.6,8
		c1.8,4.5,2.1,8.9-0.8,12.8c-3.7,4.9-3.6,10.4-3.6,16.1C3102.9,1710.8,3102.9,1722.1,3102.9,1733.3z M3102.5,1518.8
		c-3.6-7.2-2.1-13-3.2-18.4c-1.2-6-7.1-9.5-12.7-7.4c-3.1,1.2-6.1,2.9-8.7,4.9c-5.3,3.9-11.1,4.9-17.5,4.2
		c-14.4-1.7-28.9-3.6-43.4-4.9c-11.1-1-22.7-2.8-33.5-1c-14.3,2.4-29.1,0.9-43.2,5.3c-3.1,1-6.7,0.7-10,0.7
		c-15.7-0.4-31.4-0.5-47,1.5c-2.7,0.3-5.7,0.3-8.3-0.4c-11.8-3.3-23.7-6.7-35.3-10.6c-11-3.7-21.5-4.4-32.9-1
		c-15.5,4.6-31.4,8.6-47.3,11.4c-8.2,1.4-15.6,4-20.3,10.3c-7.3,9.9-17.3,8.8-27.2,8.8c-3,0-5.2-1.9-6.4-4.7
		c-0.7-1.5-1.4-3.1-1.6-4.8c-0.6-4.9-3.3-7-8-5.9c-8.5,1.8-16.9,1.1-24.9-1.6c-11.8-4.2-24.4-3-36.4-5.7c-2.1-0.5-4.6-0.4-6.7,0.1
		c-12.5,3.1-24.9,6.4-37.4,9.7c-2.9,0.8-4.9,2.5-5.7,5.5c-0.5,2.2-0.8,4.4-1.6,6.5c-1.4,3.8-4.7,5.4-8,3.5
		c-5.3-3.1-10.8-6.1-15.4-10.2c-6.8-6-13.7-6.9-21.6-3c-5,2.4-10.2,4.6-15.2,6.9c-6.9,3.2-7.6,4.1-6.3,11.2c1.8,9.4,3,18.8,4.2,28.2
		c1.1,8.2,3.8,16.3,10,22.7c8.3,8.5,15.6,9.2,25.3,2.5c14.3-9.8,21-24.4,25.4-40.3c1-3.8,1.8-7.6,2.9-11.3c0.6-2.1,2.7-1.8,4.2-1.4
		c4,1.2,7,4,8.8,7.4c4.1,7.8,10.8,12.4,17.6,17.5c9.7,7.2,20.4,14,20.7,28.3c5.7,6.6,5.1,14.5,4.6,22.4c-0.2,3.3,0.1,6.7,0,10.1
		c-0.1,12,4.3,23,7.8,34.2c0.8,2.4,3.1,3.4,5.3,2.9c1.4-0.3,3.1-1.7,3.7-3c1-2.5,1.8-5.4,1.8-8.1c0-5-0.7-10-1-15.1
		c-0.1-2.8,0.3-5.9,3.1-7.3c10.5-5.3,11.8-15.8,14.1-25.4c1.8-7.6,3.7-15.2,6.7-22.5c2.8-6.8,7-11.5,14.5-12.3
		c5.8-0.6,9.5-3.2,9.7-9.4c0.2-7.1,4.2-11.3,10.6-13.6c5.8-2.1,11.2-4.8,15.8-9.3c3.3-3.3,7.6-4.6,12.3-4.5
		c6.9,0.2,13.4-0.3,18.3-6.4c1.8-2.2,5.1-3.6,7.6-2.7c10.4,3.9,19.7,0.8,29.1-3.2c1.5-0.6,3.3-0.6,5-0.5c18.9,1.8,37.9,1.1,56.8,1.3
		c3.3,0,6.7,0.8,9.9,1.6c7.1,1.7,14,3.8,21.1,5.3c5.7,1.2,10.8,3.1,14.4,7.9c3.8,5.2,8.1,7.3,14.3,3.4c3.2-2,6.6-0.6,9,2.2
		c2.6,3,5.1,6,7.2,9.3c5,8.2,12.1,13.2,21.4,14.7c5.9,0.9,8.7,4.5,10.4,9.5c3.3,9.5,6,19.1,14.1,26.3c2.2,1.9,2.7,6,3.4,9.3
		c0.6,2.7,0.4,5.6,0.9,8.3c0.6,3.5,4.6,5.4,7.8,4c4.3-2,8.8-5.2,8.7-9.5c-0.3-12.9,5.8-23.3,10.6-34.4c2.1-4.8,4.1-8.9,7.9-12.4
		c17-15.7,36.2-28,57-37.9C3090.2,1514,3090.1,1513.9,3102.5,1518.8z M2180.5,1708.2c0.9-8.3,1.6-15.6,0.4-22.9
		c-0.5-3.3-0.9-6.7-3.5-9.2c-6.7-6.6-7.6-14.2-5.6-23.2c2.3-10.8-1.3-19.8-11-26c-2.3-1.5-5.2-2.8-6.6-5
		c-6.3-9.3-16.7-12.9-25.4-18.9c-6.6-4.6-13.2-5-20.6-2c-7.8,3.1-15.7,5.7-24.4,5.6c-8.7-0.1-14.7,4.9-18.2,12.6
		c-3.5,7.6-6.2,15.6-9.4,23.3c-4,9.8-8.8,19.3-4.3,30.5c1.1,2.8,0.1,6.7-0.3,10c-1.4,11.1-2.8,22.2-4.5,33.2
		c-0.9,5.9-0.6,11.2,4.3,15.3c6.8,5.7,8.1,13.2,6.2,21.3c-3,12.8-0.7,24.1,7.7,34.6c3.6,4.6,7.4,8.8,12.7,10.3
		c9.5,2.7,18.8,7.6,29.4,4.3c3.1-1,6.7-0.3,10-0.2c7.7,0.2,14.1-2,19.2-8.3c4.6-5.7,10.4-9.4,18.4-10.1c6-0.5,12.1-4.1,14.4-10.4
		c2.5-6.9,5.5-13.4,9.4-19.6c1.4-2.2,2.3-5.6,1.6-8C2176.9,1732.6,2182.1,1719.9,2180.5,1708.2z M1672.9,1795.3
		c2.5-9.8-2.7-16-10.2-21c-1.9-1.2-3.7-2.6-5.7-3.4c-15.7-6.1-31.5-11.8-48.5-12.5c-7.4-0.3-14.3-2.2-21.3-4.2
		c-18.3-5.2-35.6-13.3-54.3-17.1c-6.5-1.3-12.7-4.4-17.1-10c-10.7-13.5-26.4-20.4-39.6-30.6c-4.7-3.6-10.4-4-16-3.4
		c-6.8,0.7-13.7,8.9-12.3,15.6c3.2,15.9,7.1,31.6,10.8,47.3c4,17,16.2,25.9,32.1,27.8c16.6,2.1,33.1,6,49.9,5.2
		c13.8-0.7,23.8,4.5,29.9,17c3.5,7.3,8.7,12.8,15.9,16.8c5.4,3,10.1,7,12.7,13c0.2,0.5,0.5,1,0.8,1.4c5.9,8.4,10.5,10.6,20,7.6
		c10.8-3.4,21.4-6.4,32.8-6.1c2.9,0.1,5.6-0.8,7.7-2.8c4.2-3.8,8.9-6.5,14-9c7.2-3.7,8.8-10.6,3-16.6
		C1673,1805.6,1671.5,1801.2,1672.9,1795.3z M1807.4,1292.7c1.1,8.4,0.7,16.7-0.6,25.1c-0.4,2.7,0.1,5.5,0.4,8.2
		c0.2,1.9,4.2,3.4,5.5,2.1c1.5-1.6,2.9-3.4,4.2-5.2c11.7-15.8,24.2-30.7,38.6-44.1c5.7-5.3,12.1-8,19.6-8.1c15.7-0.1,31.4-0.1,47,0
		c7.5,0.1,13.8,2.8,19.3,8.4c8.6,8.8,16.6,17.6,22.5,28.8c9.1,17.2,20.6,33.2,26.1,52.2c0.1,0.5,0.6,1,1,1.3c0.9,0.6,2,1.4,2.9,1.3
		c0.9-0.1,2-1.1,2.4-1.9c3.3-6.8,2.2-14.3,2.6-21.5c0.4-6.3,0.8-12.3,4.8-17.5c4-5.2,4.7-10.9,4.4-17.4c-0.7-14.5-0.1-29,3.1-43.4
		c2.2-9.5-1.2-14.7-10.3-18.5c-10.2-4.3-20.9-4.2-31.3-1.7c-6,1.5-11.1,0.3-16.2-2c-3.5-1.6-6.9-3.7-10-6.2
		c-5.4-4.3-10.9-5.3-17.1-2.1c-9.7,5.1-19.3,4.5-29-0.2c-4-2-8.1-3.5-12.9-3.2c-18.5,0.9-36.5-1.9-54.2-7.4
		c-8.9-2.8-12.7-0.3-13.9,8.8c-0.4,3.3-0.1,6.7-0.6,10.1c-0.5,3.9-0.5,8.2-2.3,11.4C1806.2,1263.6,1806,1278,1807.4,1292.7z
		 M2825.9,1593.8c-8.4-1.2-16.6,1.2-25.1-0.2c-2.9-0.5-6.7,1.4-9.2,3.3c-5.6,4.5-10.9,9.6-15.9,14.9c-13.8,14.6-12.2,34.1-15.8,51.9
		c-1,4.6,3.1,7.9,8.1,9.1c4.1,0.9,7.7-0.6,11.5-1.4c9.8-2.1,19.7-4.6,29.3,1.3c2.2,1.3,5.4,1,8.2,1.2c9.7,0.8,19-0.6,27.9-4.6
		c5.3-2.4,10.9-4.1,16.1-1.1c8,4.6,16.5,1.8,24.7,2.5c6.1,0.5,9.6-3.6,8.6-9.6c-1.4-8.4-2.3-16.5-0.2-24.9c0.8-3.4-0.3-6.7-2.3-9.6
		c-13.2-19-27.9-35.5-54.3-32.8C2833.8,1594.1,2829.8,1593.8,2825.9,1593.8z M1605.1,1502.4c-8.8-0.1-32.8,5.8-46.7,12.6
		c-10.2,5-20.6,8.6-32.1,7.7c-7.4-0.6-12.7,3.6-17.9,7.9c-2.1,1.7-1.2,6,1.4,7c1.5,0.6,3.1,1.4,4.7,1.6c27.7,3.6,55.3,7.9,83.4,6.5
		c14.6-0.7,27.6,3.2,38.8,12.7c2.6,2.2,5.3,4.2,7.8,6.4c5.2,4.5,10.8,5.3,17.1,2.7c8.8-3.6,17.8-6.7,26.5-10.5
		c9.7-4.2,19.3-8.9,27.6-15.7c6.5-5.3,5.6-14.1-1.9-18c-5-2.5-10.3-4.3-16.1-4.3c-7,0-13.2-1.4-17.7-7.4c-2.8-3.8-7.3-4.5-11.8-5.3
		C1648.4,1502.8,1628.2,1505.9,1605.1,1502.4z M1598.7,1922.6c-0.3,0,0.8,0,1.9,0c20.8-0.6,20.8-0.6,30.9-19
		c1.6-2.9,1.5-5.6-1.2-7.3c-12.6-7.7-22.2-18.6-32.6-28.9c-6.4-6.4-14.3-10.6-23.4-12.4c-7.7-1.5-15.3-3.3-22.8-5.7
		c-11.7-3.7-23.1-3.9-34.6,0.3c-7.9,2.9-15.8,5.6-24.4,5.8c-2.2,0-4.5,0.7-6.4,1.7c-1.8,0.9-4.6,1.7-4,4.5c0.3,1.5,1.3,3.3,2.6,3.9
		c9.1,4.5,14.8,11.3,17.2,21.4c1.2,5.2,6.2,7.9,11.3,9.1c5.6,1.3,10.4,3.6,14.7,7.5c2.4,2.2,5.8,4.1,8.9,4.4
		c9.7,1.1,18.4,3.7,25.7,10.7c1.4,1.3,4.2,1.3,6.4,1.7C1578.3,1922.5,1587.7,1923.7,1598.7,1922.6z M1282.9,1534.1
		c5.8-2.3,13.4,0.5,21,2.1c12.1,2.5,23.7,6.7,34.3,12.9c11,6.4,21.6,6.9,33.5,2.2c12.9-5.1,26.5-8.6,39.9-12.2
		c4.6-1.2,8.9-2,9.8-7.4c0.8-4.6-2.9-8.8-8.6-10.7c-1.1-0.3-2.1-0.7-3.2-1c-17.2-4.5-34.6-8.3-51.6-13.5c-13.4-4.2-26-3.6-39.2,0.7
		c-16.4,5.4-32.7,11.5-49.9,14c-3.5,0.5-6.3,2.2-8.4,5c-2.2,3-8.1,4.6-6.7,8.5c2,5.3,6.6,0.7,10.1,0.6
		C1269.6,1535,1275.1,1534.6,1282.9,1534.1z M1459.2,1529.3c0,0.1,0,0.2,0,0.4c-4.5-0.3-8.9-0.8-13.4-0.7c-4.9,0.1-11.1-1.1-12.9,5
		c-1.6,5.3,3.8,8.5,7.3,10c13.1,5.6,14.4,14.8,10.9,27.1c-1.8,6.3-2.3,13.2-0.7,20c2,8.7,6.9,12.6,15.4,12
		c8.9-0.7,13.8-4.9,14.6-13.2c0.4-4.4,0.1-9-0.1-13.4c-0.3-8,0.1-15.5,7-21.4c2.4-2,3.7-5.6,5-8.6c2.5-6,0.6-11.1-4.9-14.3
		c-3.5-2-7.3-2.9-11.3-2.9C1470.4,1529.3,1464.8,1529.3,1459.2,1529.3z M2052.8,1796.1c0.6-6-4.5-11.9-7-18.7
		c-2.6-7.2-9.4-8.2-14.1-1.9c-5,6.7-9.4,13.9-13.3,21.2c-3.1,5.9-1.9,12,2.2,17.3c3.5,4.5,7.8,8,13.2,9.9c4,1.5,8.6,0.6,10.5-2.8
		C2048.4,1813.9,2052.8,1806.7,2052.8,1796.1z M2641.3,1696.1C2641.3,1696.1,2641.2,1696.1,2641.3,1696.1c-0.1,8.3-0.1,16.6,0,24.9
		c0,2.7,0.1,5.6,1,8.1c0.7,2,3,3.2,5.4,3.1c2.4-0.1,4.5-1.5,4.6-3.9c0.9-16,3.7-32,2.7-48c-0.4-5.5-2.1-10.9-3.6-16.2
		c-0.3-1.2-2.2-2.4-3.6-2.8c-2.6-0.7-4.1,1.5-5,3.4c-0.9,1.9-1.3,4.3-1.3,6.4C2641.2,1679.5,2641.3,1687.8,2641.3,1696.1z
		 M2503.1,1521c3-0.8,7.8-0.2,9.9-3.7c2.7-4.6-1.5-8.1-4-11.7c-0.6-0.9-1.4-1.7-2.2-2.6c-8.9-9.5-24.7-6.6-30.1,5.6
		c-0.9,2-1.2,4.8,1.6,5.6C2486.3,1516.6,2493.9,1520.6,2503.1,1521z M2453.7,1522.9c-1.4,0.4-2,1.4-1.1,2.5c0.6,0.7,1.8,0.9,2.8,1.3
		c0.4-1,0.8-2,1.2-2.9C2455.6,1523.5,2454.7,1523.2,2453.7,1522.9z M2340.4,1918.9c-0.1-0.4-0.1-1-0.3-1.2c-0.4-0.3-1.1-0.4-1.5-0.2
		c-1.3,0.7-1.2,1.5,0.4,1.9C2339.4,1919.5,2339.9,1919.1,2340.4,1918.9z"/>
	<path d="M1006.1,1909.4c9.8,7.9,18.4,5.4,26.6,5.2c21.4-0.6,41.6-8.4,62.5-12.1c4-0.7,7.4-2.7,9.9-5.9c4-5.2,3.5-11.7-4-12.1
		c-25.1-1.3-47.4-13.1-71.1-19.4c-7.3-2-13.7-7.4-20.6-11.2c-11.9-6.7-18.9-6.5-25.4,5c-8.7,15.3-21.4,18.3-36.9,17.1
		c-8.4-0.6-16.8-1.5-24.5-5.1c-0.5-0.2-1-0.7-1.5-0.7c-19.7-1.7-27.9-16.7-36-31.5c-2.1-3.9-3.9-8-6.9-11.4
		c-6.4-7-11.9-14.3-15.6-23.5c-3-7.5-9.3-13.9-14.7-20.3c-6.1-7.2-8-14.4-3.5-23c4.1-7.9,7.2-16.4,11.9-24
		c5.4-8.9,8.5-18.1,8.3-28.5c-0.1-5.1,0.4-10.5,5.3-13.4c4.1-2.4,2.9-10.2,9.9-9.2c2.6,5-2.4,8.2-2.8,12.5
		c-1.6,17.3-5.4,34.3-5.3,51.8c0,10,1.5,20.2-1.9,30c-0.5,1.5-0.9,3.6-0.2,4.9c5.9,11.4,10.7,23.6,21.9,31.3c2.9,2,5.9,3.2,9.4,3.1
		c5.6-0.2,11.3,0.1,16.8-0.8c6.2-1,11.9-1.4,18.1,0.5c7.2,2.2,14.5,1.7,19.7-5.3c1-1.3,2.5-2.7,4-2.9c12.3-1.9,17.5-11.4,22.1-21.1
		c2.4-5.1,5.6-8.1,10.8-9.6c3.9-1.1,7-3.6,9.2-6.9c2.8-4.3,4.9-8.4,2.6-14c-4.4-10.6-3.2-22-4.3-33.1c-0.5-5.2,1.4-10,3.2-14.7
		c3.3-8.7,3.8-17.4,2-26.5c-0.8-3.8-1-7.8-1.7-11.6c-1.8-9.9,0.6-18.5,6.3-26.8c10-14.8,16.9-31.5,29-44.9
		c13.8-15.4,27.5-31,41.7-46c4.9-5.2,11.4-8.9,17.2-13.1c3.5-2.5,8.4-0.7,9.1,3.7c0.8,4.9,1.2,10,1.1,15c-1,30.3-1.8,60.5-1.1,90.8
		c0.8,31.9,0.2,63.9,0.3,95.8c0,3.9-0.5,7.9,0.1,11.8c3.7,21.1,0.6,42.4,1.5,63.5c0.5,12.9,1.1,25.6-1.3,38.4
		c-0.5,2.7-0.3,5.6-0.1,8.4c0.7,9.9,3.5,11.8,12.8,8.7c2.1-0.7,4.1-1.9,6.2-2.7c3.4-1.2,6.5,0.9,6.6,4.8c0.4,7.4-1.5,14.4-3.7,21.4
		c-2.5,8.1-1.6,10.1,5.9,12.4c3.2,1,6.7,2.1,9.8,1.7c12.2-1.7,24.5-3.1,36.3-6.2c12.8-3.3,25.6-2.5,38.4-2.9
		c5.1-0.2,8.1,3.3,11.7,5.7c2.1,1.4,4.5,1.4,6.3,0c2.3-1.8,3.1-4.4,2.2-7.5c-1-3.4-3-6-5.4-8.4c-4.3-4.3-5.2-9.6-5.1-15.5
		c0.3-10.1,1.1-19.7,6.2-29.2c4.4-8.3,6-18,6.1-27.6c0-4.5,0.2-9,0.9-13.4c0.9-5.7,4.1-7.2,9.5-5.2c1.6,0.6,3,1.5,4.6,2.1
		c15.1,5.7,19,11.2,18.2,27.6c-0.4,8.2,1.6,16.9-4.4,24.2c-1.8,2.2-1,5.5,0.4,8c1.9,3.4,4.4,6.5,6.1,10c2.5,4.9,2.8,10.1-1.9,13.7
		c-8.1,6.3-10.4,14.1-8.5,23.8c0.8,4.2-0.8,8.3-4.4,10.2c-7.8,4-13.2,10-17.2,17.7c-2.2,4.3-6.7,5.3-9.9,2.2
		c-6.6-6.3-14.5-7.8-23.1-8.4c-3.3-0.2-7-0.6-9.8-2.1c-11.9-6.6-23.9-3.6-35.6-0.3c-5.2,1.5-9.2,2.2-14.3-0.2
		c-8.3-3.9-17.4-4.4-26.4-2.3c-17.2,4-34.2,4.2-51.6,0.3c-8.6-1.9-17.8-1.2-26.7-1.8c-3.5-0.2-6.4,1-9.4,2.9
		c-15.1,10-31.2,10.7-47.9,4.6c-2.1-0.8-4.3-2.1-6.4-1.9c-6.8,0.6-11.8-2.6-16.5-6.8c-7.3-6.5-15.3-6-23.4-1.8
		c-7,3.6-13.7,7.7-20.8,10.8c-6.8,3-13.9,4.2-20.5-1.3c-3.3-2.8-7.2-2.5-11-0.6c-3.5,1.7-7.2,3-10.7,4.7c-6.1,2.9-11.4,2.4-17.4-1.1
		c-9.5-5.6-19.6-7.8-30.6-3.4c-4.6,1.9-9.8,2.4-14.7,3.3c-4.6,0.9-8.8,0-12.7-3c-4.8-3.7-5.5-6.9-2.6-13c4-8.3,3.6-10.2-4.2-14.4
		c-4.4-2.4-9-5-13.8-5.9c-7.8-1.4-13-6.5-18.7-10.8c-5-3.8-8.6-9.4-8.1-15.8c0.5-6.8-2.6-10.6-7.7-13.6c-4.7-2.9-6.9-7.2-7.2-12.5
		c-0.3-5.1-1.3-10-4.5-14.2c-2.3-3.1-1.8-6.3,0.2-9.4c4.3-6.6,4.2-13.6,2.4-21c-1.6-6.5-1.5-13.6-3.8-19.8c-5.2-14-3.3-27.6,1-41.1
		c3.4-10.7,3.7-20.9-2.4-30.7c-2.1-3.5-2.1-7.4-2.9-11.3c-2.7-13.1-2.5-26.6-6.8-39.4c-1.8-5.3,0-10.3,5.1-12.8
		c10.8-5.4,11.8-14.3,9-24.2c-5.5-19.7-5.6-39.9-6.8-60c-0.4-6.7-0.5-13.5-1.8-20.1c-2-10.6-1.3-21.2-0.5-31.8
		c0.7-8.8,4.2-15.8,10.1-22.4c5.6-6.3,11.8-10.1,20-10.9c7.8-0.8,15.5-2,23-4.8c5.8-2.1,12.1-1.7,18.3-1.6
		c11.2,0.2,22.4,0.2,33.6,0.2c2.2,0,4.8,0.5,6.7-0.3c9.9-4.3,19.6-2.1,29.5,0.2c3.8,0.9,7.7,0.6,10.6,3.9c1.9,2.2,4.6,3.6,7.4,3.4
		c13.7-1.2,19.7,8.4,25.8,17.9c1.2,1.9,1.6,4.4,3.1,5.9c5.3,5.6,6.6,11.2,1.5,17.8c-2,2.7-0.9,6.4-0.5,9.8c1.3,11.7,1.9,23.2-5.2,34
		c-4,6.1-3,14.1-3.8,21.3c-0.8,7.5-1.9,14.3-10.2,17.7c-6.9,2.8-7.4,10.8-11.6,15.9c-0.9,1.1-3.1,2-4.3,1.6c-1.3-0.4-3-2.5-2.9-3.7
		c1.1-11.7-2.8-23.5,0.1-35.1c2.3-9.2,1.1-18-2.3-26.3c-4-9.7-3.5-18.1,2.2-27c4.4-6.8,2.6-10.8-4.6-15c-1.9-1.1-4-1.9-6-2.9
		c-6.5-3.3-12.4-3-19,0.9c-11.2,6.6-15.9,6-25.2-3.1c-5.4-5.3-11.1-7.3-18.1-6.5c-7.2,0.8-14.5,1.7-21.6,3
		c-7.9,1.5-10.6,4.6-10.6,12.4c-0.1,9,0,18,0.7,26.9c0.7,8.7-0.1,16.7-5.9,23.8c-4.5,5.5-5.6,11.9-4.8,19c1.3,12.2,2,24.3,8.7,35.5
		c5.6,9.3,5.9,20.5,5.4,31.1c-0.5,11.1-0.8,22.5-6.5,32.7c-2.9,5.2-2.5,10.9-0.3,16.3c5.3,12.8,5,24.9-2.5,36.9
		c-3.1,5-3.1,10.7-1.8,16.3c0.7,3.3,1.7,6.5,3.1,9.6c5.4,12.2,6.3,24.8,3.9,37.8c-0.8,4.5-1,8.9,0.3,13.3c2.4,7.7,2.8,15.3,0.4,23.1
		c-1.5,4.7,0,8.8,4.4,11.6c8.7,5.5,14.1,13.6,19.8,22.1c9,13.4,20.3,25.3,32.7,35.9c6,5.2,12.4,7.3,20.1,4.2
		c11.2-4.6,23-4.3,34.7-4.3c4.5,0,9.2,0.2,12.6,3.7c4.6,4.7,10,2.8,15.5,3.2c13.8,1.2,24.6-4.7,36.1-10.7c9.8-5.2,19-11.7,30-14.6
		c3.1-0.8,5.8-3.3,8.7-5c4.4-2.5,8.8-4.9,13.2-7.2c3.5-1.8,7.2-4,10.9-1c4.2,3.5,5.5,8.1,4.5,13.6
		C1019.5,1902,1015,1906.5,1006.1,1909.4z"/>
	<path d="M782.8,1434.6c-14.1,0.1-27,0.7-39.8-0.9c-7.5-0.9-13.7-3.7-20.2-7.3c-5.7-3.1-6.1-7.4-6.3-12.5c-0.1-3.2,1.2-5.3,4.4-6
		c5.5-1.1,10.9-2.9,16.4-3.3c6.3-0.4,11.9-1.8,17.6-4.7c7.3-3.7,8.5-2.9,13.1,4.5c0.9,1.4,1.4,3.1,2.5,4.4c1.5,1.8,3.7,2.7,5.9,1.9
		c6.7-2.6,14.2-4.3,19.9-8.4c6.4-4.6,10.5-4.4,15.8,1.1c3.8,4,8.7,7,13,10.5c3.2,2.6,5.6,5.6,3.6,10.1c-2.3,5.2-4.6,10.2-11.8,9.9
		C805,1433.3,793.3,1433,782.8,1434.6z"/>
	<path d="M951.5,1398.7c14.4,0.6,29.1-0.8,42.8,5.3c0.5,0.2,1.1,0.4,1.6,0.3c16-2.7,28.7,7.2,42.9,11.5c3.3,1,6.1,3,6.1,7
		c0,3.6-3.5,7.4-7.5,7.9c-6.7,0.8-13.9,1.9-19.7-1.6c-9.2-5.5-19.2-6.1-29.1-5.6c-16.4,0.8-32-4.4-48-5.8c-6.1-0.6-12-2.4-18.3-1.7
		c-2.6,0.3-5.5-0.9-8.1-1.8c-2.2-0.8-3.9-2.7-3.9-4.9c0-1.4,1.3-3.1,2.5-4.1c5-3.9,10.7-6.2,17-6.4
		C937,1398.5,944.2,1398.7,951.5,1398.7z"/>
	<path d="M2358.7,1388.1c12.2,0.2,24.4-1.7,36.4,2.7c3.9,1.4,8.8,0.3,13.2,0c9.3-0.6,17.6,1.9,25.2,7.1c4.1,2.8,6.1,7.5,5,11.5
		c-1.2,4.2-4.4,6.2-8.4,7.2c-4.4,1.2-8.7,1.7-13.2,1.1c-20.9-3.1-41.8-5.8-62.9-6.2c-8-0.1-14.9-4-22.7-5c-5-0.7-7.3-6.3-6.1-12
		c0.9-4.1,3.6-6.3,8.4-6.4C2342,1388.1,2350.3,1388.1,2358.7,1388.1z"/>
	<path d="M887.8,1984.5c9,0.7,21.3,0.8,32.9,5.8c4.2,1.8,8,3.7,10.8,7.5c2.8,3.7,5,7.5,3,12.3c-2.1,5.2-7.3,9-13.2,8.6
		c-3.9-0.2-7.8-1-11.4-2.3c-21.3-8-43.5-9-65.8-9.3c-8.7-0.1-16.6-2.2-23.5-7.5c-1.1-0.9-2-2.9-1.8-4.3c0.2-1.4,1.6-3.3,2.9-3.7
		c3.1-1,6.5-1.8,9.7-1.7c11.3,0.5,22.3-1.5,33.2-3.9C871.3,1984.7,877.9,1984.2,887.8,1984.5z"/>
	<path d="M1930.9,2208.5c0.4-3.3,0-6.9,2.4-9.6c6.1-7,10.4-15.5,19.7-20c11.5-5.5,21.9-13.1,32.9-19.7c7.9-4.7,19.2-0.3,21.5,8.3
		c0.5,2-0.2,4.4-0.9,6.4c-1.3,3.8-3.9,6.8-7,9.2c-9.2,7.2-17.2,15.8-27.2,22.2c-5.1,3.2-10.2,6.6-14.6,11.1c-5.7,5.9-16.2,5.8-23,1
		C1931.6,2215.3,1930.7,2212.1,1930.9,2208.5z"/>
	<path d="M3075.4,1995c-0.1,5-6.3,9.5-10.8,8c-9-3.1-18.2-5.6-26.7-9.8c-10.8-5.3-21.4-11.3-30.6-19.4c-2.1-1.8-4.3-3.5-6.6-4.9
		c-4.7-2.7-9.4-3-14,0.6c-3.1,2.4-6.4,4.6-9.8,6.4c-1.2,0.7-3.6,0.6-4.7-0.2c-1.8-1.3-2.3-3.5-1.6-6c1.3-4.5,3.8-8.1,7.8-10.5
		c7.6-4.7,15.2-9.3,22.8-13.9c3.2-1.9,6.6-1.5,9.5,0.6c4.1,2.9,8.1,5.9,11.9,9.1c13,10.7,29.2,16.1,43,25.6
		C3071.1,1984.6,3074.4,1989,3075.4,1995z"/>
	<path d="M2313.1,2099.5c-0.1,4-0.8,7.7-4.1,10.6c-10.5,9.1-19.6,19.8-32.4,26.2c-4.4,2.2-7.9,6.2-12.2,8.7
		c-6.5,3.9-17.8,2.2-23.2-3.4c-1.4-1.5-2.6-3.9-2.7-5.9c-0.1-7.5,2.2-13.3,9.4-18.1c13.5-9,27.8-16.1,41.9-23.7
		c3.5-1.9,6.9-3.5,10.7-4.5C2309.1,2087.2,2313.3,2090.6,2313.1,2099.5z"/>
	<path d="M1828.8,1144.9c-13.5,0.5-25.8-0.4-38.1-1.2c-5.4-0.3-9.7-1.6-13.7-4.9c-2.5-2.1-6.5-3.5-6.2-7.2c0.6-5.6,5.7-3.9,9.3-4.5
		c8.2-1.4,16.2-4,24.2-6.1c10.6-2.8,20.9-2.6,31.5-3c12.5-0.5,22.3,6.6,33,11.1c3.8,1.6,4,8.5,0.8,11.9c-4.1,4.3-9.3,6.1-15.2,5.8
		C1845.4,1146.1,1836.5,1145.5,1828.8,1144.9z"/>
	<path d="M1335.2,1993.8c5.6,0,11.2,0.4,16.8-0.1c10-0.9,18.6,3.1,27.2,7.2c5.4,2.6,7.5,7.3,6.3,12.3c-1.8,7.7-5.9,12.5-11.7,12.2
		c-10.4-0.5-21.4,1.9-30.8-4.8c-14.5-1.7-28-7.4-42.2-10.5c-2.7-0.6-5.3-1.6-7.7-2.9c-3.3-1.9-2.9-8.5,0.6-9.9
		c5.7-2.3,11.8-3.4,18-3.5C1319.5,1993.7,1327.4,1993.9,1335.2,1993.8C1335.2,1993.8,1335.2,1993.8,1335.2,1993.8z"/>
	<path d="M1932.1,2141.9c3.2,9.4,0.1,17.4-6.2,24.6c-4.5,5-8.8,6-15,3.1c-16.4-7.6-30.4-18.4-41.6-32.7c-0.4-0.6-0.2-2.3,0.4-2.9
		c0.5-0.6,2.3-1,2.8-0.6c7.8,5.9,16.2,1,24.3,1.6c3,0.2,4.6-2.9,5.1-5.8c1.1-7,5.4-12.2,9.4-17.6c3.1-4.2,7.5-4.4,11.5-1
		c6.4,5.5,7.8,13.4,9.1,21.1C1932.6,2134.9,1932.1,2138.4,1932.1,2141.9z"/>
	<path d="M1692.9,2220.7c-0.3,1-0.4,3-1.5,4.1c-5.5,5.4-10.4,12-17.8,14.8c-4.9,1.8-9.1,4.3-13.2,7.2c-11.6,8-25.6,10.8-37.7,17.8
		c-4.9,2.9-9.8,0.8-13.8-2.8c-3.9-3.5-4.2-8.1-0.3-11.7c3.7-3.4,7.5-7.4,12-8.8c8.8-2.9,15.4-8.8,22.7-13.8
		c11-7.5,21.8-15.5,35-18.9C1685.7,2206.6,1693.2,2212.7,1692.9,2220.7z"/>
	<path d="M3449.5,1394c0.6,7.5-0.3,14-2.4,20.6c-2.4,7.5-4.1,15.1-4.3,23.1c0,2.7-0.9,5.5-2,8c-4.7,10.5-7.2,21.2-2.9,32.5
		c0.9,2.3-0.2,4.3-1.3,6.3c-1.7,3.1-4.3,3.9-6.6,2c-10.1-7.9-13.3-18.7-8.5-29.9c5.8-13.6,6-26.9,4-40.9c-0.4-3.3-0.1-6.8,0.7-10
		c2.5-10.4,4-20.9,3.7-31.6c-0.1-3.5,1.3-6.5,3.3-9.4c1.3-1.8,4.4-2.3,5.7-0.6C3445.9,1373.1,3451.9,1382.5,3449.5,1394z"/>
	<path d="M2132.4,2169.2c-6.2,0.4-12,0.1-17.8-3.1c-4.2-2.3-9.7-2.4-14.5-3.7c-9.2-2.4-18.5-4.6-27.5-7.5c-6.2-2.1-8.1-6.9-6.6-13.5
		c1-4.5,3.7-6.9,8.1-7.1c1.1-0.1,2.2,0,3.3,0.1c16.7,1.3,33.4,2.5,50,3.9c3.3,0.3,6.7,0.7,9.9,1.6c14,3.7,16.4,8,12.5,21.6
		c-1.8,6.5-2.8,7.4-9,7.7C2138,2169.3,2135.2,2169.2,2132.4,2169.2z"/>
	<path d="M1584.3,1416c-4.9,0-8.1-5.1-6.2-9.6c1.6-3.9,4.8-5.9,8.5-7.5c20.6-8.9,42.6-13,64.1-18.8c3.6-1,6.6-0.8,9.6,1
		c3.4,1.9,6.8,3.9,10,6.1c5.7,3.9,6.1,8.6,1.6,14.1c-4.7,5.7-11.2,7.6-18,7.5c-8.5-0.1-16.7,1-25,2.2c-13.2,1.9-26.6,2.9-39.9,4.3
		C1587.4,1415.5,1585.7,1415.8,1584.3,1416z"/>
	<path d="M3276.6,2015.8c-8.4,0.8-16.6,0.5-24.8-1.9c-3.6-1-8-0.7-11.6,0.5c-8.3,2.7-16.6-1.7-24.9,0.6c-3.3,0.9-6-2.4-8.6-4.6
		c-3.9-3.3-3.8-7,0.1-9.5c4.7-3,9.7-6.1,15.3-6.3c11.7-0.5,23.8-2.3,35.1,0c11.9,2.4,23.3,2,34.8,0.3c5.4-0.8,9.9-0.3,14.2,2.9
		c5.2,4,5.1,10.5-0.6,13.8c-6.3,3.6-12.9,6.7-20.6,5.4C3282.2,2016.5,3279.4,2016.2,3276.6,2015.8z"/>
	<path d="M1199.3,1404.8c19.9-0.9,40.1,0.8,59.8-3.8c5-1.2,8.5,2.1,8.8,7.3c0.5,8.3-2.4,12-10.8,14c-6.5,1.5-13,2-19.8,2
		c-14.5,0-28.9,1.8-43.4,0.3c-6.6-0.7-13.2-1.8-19.9-2.7c-3.5-0.5-6.2-2.3-8.5-4.8c-1.9-2.2-3.4-4.7-2.5-7.5
		c0.9-2.8,3.2-4.7,6.2-4.9c3.3-0.2,6.7,0.1,10,0.1C1185.9,1404.8,1192.6,1404.8,1199.3,1404.8z"/>
	<path d="M2398,2010.1c-11.2,0-22.3,0.1-33.5,0c-3.3,0-6.7-0.2-9.9-1c-1.9-0.5-4.5-1.6-4.1-4.4c0.2-1.4,1.3-3.1,2.6-3.8
		c8.8-5.1,18.5-7.6,28.4-9.5c2.7-0.5,5.6-0.8,8.3-0.7c19.4,0.6,39-1.3,58.3,2.4c4,0.8,7.6,1.6,10,5.1c2.2,3.2,5,6.2,2.4,10.5
		c-2.8,4.6-6.6,7.1-11.1,5c-10.7-4.9-22-2.5-33-4c-6-0.8-12.2-0.1-18.4-0.1C2398,2009.6,2398,2009.9,2398,2010.1z"/>
	<path d="M1388.9,1387.9c12.6-2.7,27,5.9,42.5,7.9c6.1,0.8,12,3.2,18.2,2.5c9.9-1.1,17,4.5,24.5,9.3c3.2,2.1,3.5,5.7,2.5,9
		c-0.8,2.9-3.3,4.7-6.2,4.9c-3.3,0.2-7,0.6-9.9-0.6c-14.8-5.7-30.6-7.1-45.9-9.5c-12.7-2-24.5-7.8-37.7-7.5
		c-3.4,0.1-6.4-2.2-8.1-5.3c-1-1.9-2-4.3-1.6-6.2c0.6-2.9,3.2-4.4,6.3-4.5C1377.5,1387.9,1381.4,1387.9,1388.9,1387.9z"/>
	<path d="M1735.9,1311.4c-0.1,14.2-1.4,26.9-8.8,38.1c-2.4,3.7-4.9,4.3-8.2,1.9c-6.4-4.6-9.3-10.3-8.5-18.5c2-21,3.3-42.1,5.1-63.1
		c0.6-6.6,1-13.4,6.2-18.5c1.3-1.3,4.9-0.9,5.8,0.7c0.8,1.5,1.9,3,1.9,4.5c0.2,15.7,4.6,30.8,5.9,46.3
		C1735.6,1306.1,1735.7,1309.4,1735.9,1311.4z"/>
	<path d="M2769.1,1400.6c-12.7,1.1-26.1,1-39.4-1.6c-4.7-0.9-8.4-2.7-11.1-6.6c-1.6-2.4-3.2-4.8-1.6-7.7c2-3.5,4.6-6.4,9.1-6.3
		c1.1,0,2.2,0.4,3.2,0.8c12.2,5.4,25.2,3.7,37.9,3.7c16.2,0,32.4-0.7,48.6-1c3.4-0.1,6.7,0.3,9.6,2.3c1.7,1.1,2.3,4.7,0.6,5.8
		c-2.8,1.8-5.6,3.7-8.7,4.8C2802.1,1400.5,2786.3,1403.4,2769.1,1400.6z"/>
	<path d="M2165.4,1405c-13.6,2.1-27.7-0.7-41.5,2.6c-5.6,1.4-11.1-0.3-16.1-3.2c-2.8-1.6-3.1-6.4-0.7-8.7c4.2-4,9.7-6.1,14.9-7.1
		c23.2-4.4,46.7-5,70.1-2.8c4.4,0.4,8.8,1.6,12.4,4.6c2.8,2.3,4.1,5.3,3.4,8.9c-0.7,3.9-3.7,5.6-7.3,5.7
		C2189,1405.1,2177.3,1405,2165.4,1405z"/>
	<path d="M3124.1,1334.5c-5.1-0.1-8.4-2-9.3-5.5c-1.2-4.6,0.1-8.8,4.9-11.2c12.5-6.1,20.5-17,29.6-26.6
		c10.4-10.9,20.3-22.3,30.5-33.4c2.2-2.4,4.9-4.6,7.6-6.5c1.1-0.7,3.6-0.8,4.5,0c1,0.8,1.8,3.1,1.4,4.4c-2.5,9.8-6.6,19-12.5,27.2
		c-5.2,7.2-10,14.8-17.8,19.8c-2.7,1.8-5.3,4.4-6.8,7.3c-5.3,9.8-15.7,14.1-22.8,21.9C3131,1334.7,3127.5,1334.6,3124.1,1334.5z"/>
	<path d="M3379.8,1270.5c-8.2,0.3-13.2-0.2-17.2-3.7c-5.2-4.5-11.2-7-17.8-8.6c-2.6-0.6-5.4-1.7-7.5-3.4c-5.1-4-10.7-5.5-17-5.7
		c-3.9-0.1-7.8-0.7-11.1-3.1c-2.9-2.1-4.5-5-4.4-8.5c0.1-3.6,2.2-6.5,5.6-7.5c9-2.9,17.8-5.3,27.5-1c9.7,4.2,19.6,7.4,26.9,15.7
		c3.6,4.1,8.5,7.2,14.2,8.4c2.8,0.6,5.3,1.5,7.2,3.8c2.2,2.8,3.4,5.7,2.1,9.2c-1.1,3-3.6,4.1-6.5,4.4
		C3380,1270.5,3378.4,1270.6,3379.8,1270.5z"/>
	<path d="M2082.3,1277c3.4-15.7,3.4-30.8,3.5-45.8c0-6.9,4.9-11,9.9-14.6c1.9-1.3,5.1-0.3,5.4,2.1c1.9,14.5,10.5,28.3,3.6,43.9
		c-3.3,7.6-2.6,16.5-2.4,24.8c0.2,7.4-0.9,14.5-3.8,21.2c-0.9,1.9-2.5,3.6-4,5.2c-1.7,1.8-6.3,0.9-7.2-1.3c-0.7-1.5-1.4-3.1-1.5-4.7
		C2084.9,1297.1,2085.5,1286.5,2082.3,1277z"/>
	<path d="M1561.2,2026.8c-7.1-1.5-14.3,0.1-21.5,0.1c-5.6,0-11.2,0.2-16.6-1.6c-3.4-1.2-5.9-3.3-5.6-7.3c0.3-3.7,2.8-6,6.2-7
		c2.1-0.6,4.4-1,6.6-0.9c9.1,0.4,17.7-1.6,26.3-4.4c13.9-4.5,27.7-0.7,41.4,1.5c4,0.6,7.1,6.2,6.9,10.4c-0.3,4.4-3.8,8.8-8.3,9.1
		c-6.1,0.5-12.3,0.8-18.4,0.5C1572.5,2027,1567,2025.7,1561.2,2026.8z"/>
	<path d="M681.5,1757.1c0,2.7,0.2,6.7-0.1,10.5c-0.1,2.2-0.6,4.4-1.5,6.4c-1.7,4-7,7.8-10.3,7.3c-4.5-0.8-6.3-4.5-7.2-8.3
		c-1-4.3-2.5-9-1.8-13.2c1.5-9.6,0.1-18.9-1.2-28.3c-1.6-11.7-0.3-23.4,0.3-35.1c0.3-4.7,3.3-6.8,6.9-8.5c2.3-1.1,5-0.5,5.2,2
		C674,1712.2,683.9,1733.2,681.5,1757.1z"/>
	<path d="M3426.6,1824.3c2.9-7.4-0.3-17.2,2.6-26.4c0.9-3,0.5-6.8-0.5-9.9c-2.1-7,1.3-13.2,2.2-19.8c0.5-3.6,4.3-5.3,7.8-5.3
		c3.5,0,6.7,1.8,7.5,5.6c2.1,9.3,3.9,18.6,5.6,27.9c0.4,2.1,0.5,4.6,0,6.6c-3.2,11.4-3.7,23.2-4.5,34.9c-0.4,5.4-2.4,7.5-6.8,8.1
		c-5.6,0.7-8.8-0.8-11-5.4C3427.3,1836.1,3425.5,1831.4,3426.6,1824.3z"/>
	<path d="M1651,2158.2c-0.3,1-0.3,2.4-0.9,3c-3.1,3.1-6,7-9.8,8.9c-8.9,4.5-18.3,8-27.5,11.8c-1.4,0.6-3.3,0.3-4.9,0.1
		c-4.6-0.6-8-5.7-6.1-9.9c3.2-7.1,8.1-13.7,9.9-21.1c3.6-15,15.7-22.2,25.8-31.4c0.8-0.8,3.1-0.4,4.5,0c0.5,0.1,1.2,2.2,0.8,2.8
		c-5.2,7.7,0.6,16.4-2.3,24.4c-1,2.7,1.7,4.9,4.4,6.3C1647.2,2154.3,1650.1,2155.1,1651,2158.2z"/>
	<path d="M2019.7,1138.5c10.1,0,20.1-0.1,30.2,0.1c2.7,0,5.7,0.4,8.2,1.5c3.7,1.6,6.6,4.3,6.8,8.8c0.2,3.6-1.5,6.6-4.5,8.5
		c-4.8,3.1-9.4,4.7-15.6,2.4c-9.4-3.5-19.5-4.2-29.8-3.7c-10,0.5-20.1-0.3-30.2-0.6c-1.7,0-3.4-0.3-5-0.6c-4.5-1-7.5-4.1-7.6-7.7
		c-0.1-4.3,3.2-7,8.9-7.7C1993.9,1137.5,2006.8,1138.4,2019.7,1138.5z"/>
	<path d="M2572.7,1996c4.4,0.9,8.7-0.3,13.1-0.9c14.5-2.3,29-1.3,43.5-0.8c2.2,0.1,4.4,0.7,6.4,1.7c2.6,1.2,4.5,3.5,4.3,6.6
		c-0.2,3.1-2.2,5.3-5.1,5.9c-13.8,2.4-27.5,4.6-41.4,6.7c-2.1,0.3-4.4-0.4-6.6-0.7c-12.8-1.4-25.5-2.9-38.3-4.3
		c-2.2-0.2-4.5-0.2-6.5-1c-1.4-0.5-3-2.3-3.1-3.6c-0.1-1.3,1.3-3.7,2.4-4c9.1-2.5,18.1-5.8,27.8-5.8
		C2570.3,1995.8,2571.4,1995.9,2572.7,1996z"/>
	<path d="M1863,2215.3c-0.6,1.4-1.1,3.7-2.5,5.3c-4.7,5.3-11.9,6.9-18.2,3.6c-6.4-3.2-12.3-7-17.3-12.7
		c-6.4-7.4-11.5-16.6-21.7-20.3c-3.6-1.3-5.5-5.3-7-9.1c-1.8-4.4,1.2-9.5,5.9-9.8c1.6-0.1,3.5-0.3,4.9,0.3
		c10.6,4.8,21.8,8.6,29.9,17.5c6,6.6,11.6,13.5,20.8,16.2C1861.1,2207.4,1862.5,2210.9,1863,2215.3z"/>
	<path d="M1556.6,2124.3c-1.3,7.6-0.9,15.7-6.9,21.9c-1.5,1.5-3.1,3.8-3.2,5.8c-0.6,10.9-8.6,19.3-10.1,29.9
		c-0.6,3.9-3,7.1-5.6,10.1c-5.9,6.8-9,8.7-11.9,6.4c-5.5-4.5-9.4-14.4-6.5-19.3c9.1-15.2,13.8-32.9,26.9-45.8
		c5.3-5.2,6.7-12.7,10.1-19.1c0.4-0.8,1.9-1.4,2.8-1.3c0.8,0.1,1.9,1,2.4,1.9C1556.3,2117.6,1557.1,2120.8,1556.6,2124.3z"/>
	<path d="M3005.8,1394.7c-1.8,0.2-6.3,0.5-10.6,1.3c-14.5,2.5-29.1,1.4-43.6,1c-2.2-0.1-4.4-0.7-6.4-1.6c-2.8-1.2-4.1-3.7-3.7-6.8
		c0.3-2.4,1.8-4.3,4.1-4.7c18.7-2.7,37-8.9,56.5-5.5c12.1,2.1,24.5,2.3,36.8,3.6c1.2,0.1,2.8,2.2,3,3.4c0.1,1.3-1.1,3.7-2.2,4
		C3029.4,1392.3,3019.4,1396.2,3005.8,1394.7z"/>
	<path d="M2600.7,1396.7c-12.7,2.1-27.8,2.1-42.9,1.8c-5-0.1-10.1-0.4-15-1.2c-2.8-0.5-4.8-2.8-4.7-6c0.1-3.1,1.6-5.6,4.6-6.1
		c13.7-2.5,27.5-4.7,41.2-7c0.5-0.1,1.1-0.2,1.7-0.1c16.6,1.9,33.3,3.9,49.9,6c1.5,0.2,3,1.3,2.9,3.5c-0.1,1.9-0.9,3.4-2.5,3.8
		C2625.1,1394.2,2614.6,1398.5,2600.7,1396.7z"/>
	<path d="M1066,1990.5c17.2,4.9,35.1,2.9,52.9,3.4c5,0.1,10.1,0.2,14.9,1.3c8,1.8,10.6,12.4,5,18.8c-2,2.2-4.6,3-7.6,2.4
		c-16.9-3.4-33.8-6.2-50.9-8.3c-7.1-0.9-14-3.8-19.7-8.4c-1.7-1.4-2.5-3.6-1.6-6c0.9-2.3,2.7-3.3,5.2-3.4
		C1064.6,1990.4,1065.2,1990.4,1066,1990.5z"/>
	<path d="M2817.7,2027.2c-18,0.5-41.4-7.7-52.3-18.6c-0.6-0.6-0.9-2.1-0.6-3c0.2-0.8,1.3-1.7,2.2-1.8c5-0.8,9.9-0.5,14.9,1.1
		c17.3,5.6,34.9,6.6,52.8,3.3c3.2-0.6,6.7-0.6,9.9-0.2c4.1,0.5,8.8,4.6,8.3,7.1c-0.8,3.9-2.9,7.5-7,8.6c-4.8,1.2-9.9,1.8-14.9,2.4
		C2826.7,2026.6,2822.2,2026.9,2817.7,2027.2z"/>
	<path d="M3449.7,1634c-1.1,10.8-1,19.7,0.1,28.6c0.7,5.7,0.3,11.2-3.7,15.8c-1.4,1.6-4.4,1.6-5.8,0c-2.3-2.6-3.8-5.6-4.2-9
		c-1.6-14.4-3.3-28.8-4.4-43.2c-0.8-10.8,2.7-21,5.8-31.1c0.7-2.1,2.8-3.5,5.2-3.4c2.6,0.1,4.1,2,4.8,4.1c0.9,2.6,1.9,5.4,1.7,8.1
		C3448.7,1614.6,3448.8,1625.2,3449.7,1634z"/>
	<path d="M640.7,1532.1c1-10.5,1-21.2,3.1-31.5c2.3-11.6,9.9-20.9,16.4-30.5c0.4-0.6,2.1-0.7,3-0.4c2.6,1,5.5,2.4,5.5,5.5
		c0,4.4,0.1,9.3-1.7,13.1c-5.2,11.5-7,23.3-5.1,35.8c0.4,2.4-0.7,4.2-2.4,5.8c-2.5,2.2-4.7,4.8-7.3,6.9c-2.8,2.2-4.9,7.2-9.4,4.5
		C640.1,1539.6,640.4,1535.5,640.7,1532.1z"/>
	<path d="M1646,2113.9c0.6-2.4,0.7-4.8,1.7-6.6c5.6-9.5,11.5-19,17.3-28.4c2.1-3.4,4.6-6.2,8.4-7.8c3.4-1.4,7.2-0.5,8.6,2.5
		c2.8,5.7,3.9,11.2,1.3,17.6c-3.3,8-9.9,13.3-14.6,20.2c-0.8,1.2-2.7,2.3-4.2,2.4C1658.6,2114.1,1652.6,2113.9,1646,2113.9z"/>
	<path d="M689.4,1903.6c0.8,0.3,2.3,0.8,3.9,1.4c12.9,4.5,20.5,14.9,28,25.4c1.5,2.1,2.1,5.2,2.2,7.9c0.3,5.9-6.1,10-11.6,7.8
		c-6.4-2.5-11.8-6.7-15.6-12.3c-4.6-6.9-8.6-14.3-12.4-21.7C681.8,1908.2,685,1902.9,689.4,1903.6z"/>
	<path d="M3439.7,1932.8c-3.5,8.4-5.7,17.4-6.5,27c-0.4,5.1-4.9,8.5-9.3,11.1c-2.4,1.4-4.4,3.4-6.8,4.9c-2.4,1.6-5.7,0-6.5-2.8
		c-1-3.4-1.2-7.1,0.8-9.7c8.5-10.7,11.6-23.9,16.8-36.1c0.2-0.5,0.6-0.9,0.9-1.4c1.3-2.1,3.3-3.3,5.5-2.9c2.3,0.3,3.8,2.2,4.4,4.5
		C3439.4,1928.9,3439.5,1930.6,3439.7,1932.8z"/>
	<path d="M1829,2084.5c1.1,0,2.3-0.3,3.3,0c14,4.2,27.1,10.1,36.1,22.3c3.1,4.2,2.5,7.4-2.3,11.2c-3.5,2.7-7.5,2.8-10.1-1.1
		c-5.8-8.7-13.8-14.3-23-18.5c-3-1.4-5.9-3.3-7.4-6.4c-0.7-1.3-0.8-3.3-0.4-4.7C1825.6,2085.6,1827.2,2084.7,1829,2084.5z"/>
	<path d="M1704.4,2117.9c-0.1,1.4,0.1,2.5-0.4,3.4c-5,8.9-12.7,15.3-20.7,21.2c-1.6,1.2-4.1,1.2-6.2,1.4c-2,0.2-4.4-3.5-3.3-4.7
		c7.9-8.4,14.7-18.1,26.1-22.3C1701.1,2116.4,1702.9,2117.5,1704.4,2117.9z"/>
	<path d="M1746.6,2099.7c-0.1-4.6,2.1-8.3,5-11.4c0.7-0.7,3.1-0.1,4.6,0.3c0.9,0.3,1.9,1.3,2.1,2.2c1.1,5-4.2,11.2-9.2,10.7
		C1748.3,2101.4,1747.5,2100.3,1746.6,2099.7z"/>
	<path d="M1724.1,2120.9c-0.5-0.9-1.5-2-1.3-2.6c2.2-4.5,5.7-7.7,10.5-9.2c0.4-0.1,2.1,1.3,2,1.9
		C1734.4,2116.1,1728.5,2121.3,1724.1,2120.9z"/>
	<path d="M1688.5,2054.9c2.2-0.3,3.3,1,2.9,2.6c-0.4,2-1.5,3.9-2.6,5.5c-0.4,0.6-1.8,0.6-2.8,0.6c-0.3,0-0.9-0.7-1-1.2
		C1684.8,2059.3,1684.8,2056.1,1688.5,2054.9z"/>
	<path d="M2034.9,1922.7c4.1-0.1,7.9,0.9,10.1,4.7c3.4,5.9,8,10.6,13.6,14.6c2.1,1.5,3.7,4.1,5,6.5c1.3,2.4,2.2,5.3,0,7.8
		c-2.6,3-5.2,1.1-7.4-0.3c-3.3-2.1-6.6-4.3-9.2-7.2c-3.5-4-8-6-12.7-7.9c-9.1-3.7-10.9-3.4-16.3,5.1c-6,9.6-15.6,9.5-24.9,10.5
		c-1.3,0.1-3.1-1.3-4-2.5c-2.6-3.6-5.1-7.4-7.4-11.2c-1.9-3.2,0.2-6.9,4.1-7.3c8.3-0.7,16.6-1.5,25-1.7c5.3-0.2,9.8-0.7,12.5-6.2
		C2025.6,1923.1,2030.2,1922.5,2034.9,1922.7z"/>
</g>
</svg>
