<svg xmlns="http://www.w3.org/2000/svg" viewBox="0 0 700 850">
  <g fill="none" stroke="#111" stroke-width="2.5" stroke-linejoin="round" stroke-linecap="round">
    <!-- Longsleeve front silhouette (clean) -->
    <path d="M 245 175 L 245 760 L 455 760 L 455 175" />
    <path d="M 245 760 L 455 760" />
    <!-- Long sleeves -->
    <path d="M 245 175 L 130 320 L 145 660 L 230 660 L 245 240 Z" />
    <path d="M 145 645 L 230 645" stroke-width="1" />
    <path d="M 455 175 L 570 320 L 555 660 L 470 660 L 455 240 Z" />
    <path d="M 470 645 L 555 645" stroke-width="1" />
    <!-- Front neckline -->
    <path d="M 290 175 Q 350 245 410 175" />
    <path d="M 295 165 Q 350 215 405 165" stroke-width="1.5" />
    <path d="M 245 175 L 290 175" />
    <path d="M 410 175 L 455 175" />
  </g>
</svg>
