<svg xmlns="http://www.w3.org/2000/svg" viewBox="0 0 700 850" font-family="Montserrat, sans-serif">
  <!-- Gray-filled t-shirt -->
  <g fill="#cfcfcf" stroke="#111" stroke-width="2" stroke-linejoin="round" stroke-linecap="round">
    <path d="M 245 175 L 145 270 L 180 330 L 245 275 L 245 760 L 455 760 L 455 275 L 520 330 L 555 270 L 455 175 L 410 175 Q 350 245 290 175 L 245 175 Z" />
  </g>
  <!-- Re-stroke key lines -->
  <g fill="none" stroke="#111" stroke-width="2" stroke-linejoin="round" stroke-linecap="round">
    <path d="M 295 165 Q 350 215 405 165" stroke-width="1.5" />
  </g>

  <!-- Measurement arrows (red) -->
  <g stroke="#d6342f" fill="#d6342f">
    <!-- 1. Neck Width -->
    <line x1="290" y1="195" x2="410" y2="195" stroke-width="1.5" />
    <polygon points="290,195 298,191 298,199" />
    <polygon points="410,195 402,191 402,199" />

    <!-- 2. Body Length (vertical right) -->
    <line x1="495" y1="200" x2="495" y2="755" stroke-width="1.5" />
    <polygon points="495,200 491,208 499,208" />
    <polygon points="495,755 491,747 499,747" />

    <!-- 3. Chest Width (pit to pit) -->
    <line x1="245" y1="310" x2="455" y2="310" stroke-width="1.5" />
    <polygon points="245,310 253,306 253,314" />
    <polygon points="455,310 447,306 447,314" />

    <!-- 4. Bottom Width -->
    <line x1="245" y1="745" x2="455" y2="745" stroke-width="1.5" />
    <polygon points="245,745 253,741 253,749" />
    <polygon points="455,745 447,741 447,749" />

    <!-- 5. Shoulder Width -->
    <line x1="245" y1="160" x2="455" y2="160" stroke-width="1.5" />
    <polygon points="245,160 253,156 253,164" />
    <polygon points="455,160 447,156 447,164" />

    <!-- 6. Sleeve Length (shoulder→cuff diagonal) -->
    <line x1="245" y1="200" x2="155" y2="295" stroke-width="1.5" />
    <polygon points="245,200 240,206 248,212" />
    <polygon points="155,295 161,291 159,299" />

    <!-- 7. Sleeve Opening -->
    <line x1="155" y1="290" x2="200" y2="320" stroke-width="1.5" />
    <polygon points="155,290 163,287 159,295" />
    <polygon points="200,320 195,317 198,325" />

    <!-- 8. Neck Drop -->
    <line x1="350" y1="180" x2="350" y2="245" stroke-width="1.5" />
    <polygon points="350,180 346,188 354,188" />
    <polygon points="350,245 346,237 354,237" />
  </g>

  <!-- Numbered circles -->
  <g font-family="Montserrat, sans-serif" font-weight="900" font-size="13">
    <g fill="#fff" stroke="#d6342f" stroke-width="1.5">
      <circle cx="350" cy="210" r="11" />
      <circle cx="520" cy="475" r="11" />
      <circle cx="350" cy="335" r="11" />
      <circle cx="350" cy="775" r="11" />
      <circle cx="240" cy="135" r="11" />
      <circle cx="170" cy="225" r="11" />
      <circle cx="125" cy="335" r="11" />
      <circle cx="380" cy="215" r="11" />
    </g>
    <g fill="#d6342f" text-anchor="middle">
      <text x="350" y="214">1</text>
      <text x="520" y="479">2</text>
      <text x="350" y="339">3</text>
      <text x="350" y="779">4</text>
      <text x="240" y="139">5</text>
      <text x="170" y="229">6</text>
      <text x="125" y="339">7</text>
      <text x="380" y="219">8</text>
    </g>
  </g>
</svg>
